<svg xmlns="http://www.w3.org/2000/svg" width="19.969" height="22.286" viewBox="0 0 19.969 22.286"><defs><style>.a{fill:#8fcf4b;}</style></defs><g transform="translate(0.001 0.005)"><path class="a" d="M5.245,5.705a4.315,4.315,0,0,1-.073-2.381A4.809,4.809,0,0,1,7.444.545,3.8,3.8,0,0,1,11.686.75a1.391,1.391,0,0,1,.205.169,4.043,4.043,0,0,0,.955.785,1.728,1.728,0,0,1,.773,1.317,6.141,6.141,0,0,1-.109,2.526c-.012.048-.024.1-.036.169.435.121.508.471.471.846a4.653,4.653,0,0,1-.471,1.716,3.18,3.18,0,0,1-.363.459A.672.672,0,0,0,13,8.944L12.6,10a3.461,3.461,0,0,0-.085.338.329.329,0,0,0,0,.109,2.886,2.886,0,0,1-.387,1.74,4.4,4.4,0,0,0-.435,3.178.368.368,0,0,1-.109.375L8.907,18.418A2.414,2.414,0,0,0,8.23,19.53.2.2,0,0,1,8,19.7c-2.284,0-4.568,0-6.864-.012A1.088,1.088,0,0,1,0,18.539c0-.616-.012-1.233.036-1.837a1.734,1.734,0,0,1,.689-1.221A30.341,30.341,0,0,1,5.97,12.1a.315.315,0,0,0,.218-.35,3.227,3.227,0,0,1,0-.483,2.859,2.859,0,0,0-.326-1.789.77.77,0,0,1-.024-.085A2.615,2.615,0,0,0,5.4,8.509a3.515,3.515,0,0,1-.6-1.644,1.967,1.967,0,0,1-.036-.375A.68.68,0,0,1,5.245,5.705Z" transform="translate(0 0)"/><path class="a" d="M12.282,16.465c.169.169.338.3.471.447a.872.872,0,0,1-1.233,1.233c-.145-.145-.278-.3-.4-.435l-.8.8c.109.1.254.218.387.35a.883.883,0,0,1,.012,1.257A.872.872,0,0,1,9.466,20.1c-.387-.375-.773-.761-1.148-1.148a.861.861,0,0,1,.012-1.281l3.408-3.408a.3.3,0,0,0,.085-.387,3.377,3.377,0,1,1,3.77,1.946,3.27,3.27,0,0,1-2.139-.266.215.215,0,0,0-.3.048C12.886,15.885,12.6,16.151,12.282,16.465Zm4-3.94A1.366,1.366,0,1,0,14.9,13.855,1.369,1.369,0,0,0,16.282,12.526Z" transform="translate(1.676 1.904)"/></g></svg>