<svg xmlns="http://www.w3.org/2000/svg" viewBox="0 0 130.23 184.28" width='30' height='50'><defs><style>.cls-1{fill:#4d4d4d;}.cls-2{fill:#fff;}.cls-3{fill:#072e44;}</style></defs><title>AtRentalPoint</title><g id="Layer_2" data-name="Layer 2"><g id="Layer_1-2" data-name="Layer 1"><path class="cls-1" d="M65.1,184.28c-6.16-7.51-11.9-14.2-17.28-21.15-16.27-21-31.24-42.79-41.16-67.63-6-15-8.83-30.3-4.73-46.38C10.44,15.75,42.79-5,77.25,1c32.4,5.63,55.92,36.49,52.68,69.78a83.47,83.47,0,0,1-5,20.8C112,126.54,89.47,155.4,65.1,184.28Z"/><path class="cls-2" d="M65.29,6.76A58.58,58.58,0,0,0,6.48,65c-.33,32,26.08,58.68,58.25,58.93,32.33.25,59-26.2,59.06-58.62A58.58,58.58,0,0,0,65.29,6.76Z"/><path class="cls-3" d="M83.19,25.5a4.53,4.53,0,0,0-9.06,0V43.69h9.06Z"/><path class="cls-3" d="M59.66,25.5a4.53,4.53,0,0,0-9.06,0V43.69h9.06Z"/><path class="cls-3" d="M88.52,45.66H45.58a6.39,6.39,0,1,0,0,12.77h1.88a12.5,12.5,0,0,0-.14,1.74V80a11.6,11.6,0,0,0,11.6,11.61h1.2v5A3.13,3.13,0,0,0,62.56,100h.16c-1.15,3.91-4.09,7.33-8.28,7.88-6.07.79-10.68-5.6-15.17-8.67A15.84,15.84,0,0,0,22,99a22.07,22.07,0,0,0-3.22,2.37c1,1.08,2,2.2,3,3.31a5.79,5.79,0,0,0,.79.39,2.67,2.67,0,0,1,1.21,1.09,14.72,14.72,0,0,1,4-2.3c6.5-2.35,11.61,4.68,16.27,8,11.1,7.83,23.17-.63,25.61-11.78a3.18,3.18,0,0,0,2.81-3.47v-5h2.67A11.6,11.6,0,0,0,86.78,80V60.17a11.14,11.14,0,0,0-.14-1.74h1.88a6.39,6.39,0,1,0,0-12.77Z"/><path id="Path_1738" data-name="Path 1738" class="cls-2" d="M66.86,68.79H58.35L73,51h0q-2.2,6.34-4.4,12.72h8.51L62.5,81.53l0,0Z"/></g></g></svg>