<svg xmlns="http://www.w3.org/2000/svg" width="20.461" height="20.466" viewBox="0 0 20.461 20.466"><defs><style>.a{fill:#8fcf4b;}</style></defs><path class="a" d="M4.222,2.062a4.653,4.653,0,0,1,.612.275c.643.414,1.279.84,1.912,1.271a.5.5,0,0,0,.452.056,1.223,1.223,0,0,0,1-1.257A14.649,14.649,0,0,1,8.5.84.9.9,0,0,1,9.514.007c.521,0,1.044,0,1.565,0a.869.869,0,0,1,.929.773c.159.771.3,1.544.474,2.312a.58.58,0,0,0,.245.3,1.2,1.2,0,0,0,1.621-.151A12.088,12.088,0,0,1,15.7,2.329a.863.863,0,0,1,1.227.11q.571.558,1.13,1.13A.871.871,0,0,1,18.18,4.8c-.426.649-.855,1.3-1.293,1.937a.488.488,0,0,0-.039.451,1.192,1.192,0,0,0,1.226.993,12.9,12.9,0,0,1,1.566.3.893.893,0,0,1,.844,1.036c0,.511,0,1.021,0,1.532a.861.861,0,0,1-.783.95c-.749.153-1.5.312-2.25.448a.515.515,0,0,0-.38.3,1.2,1.2,0,0,0,.178,1.564,14.3,14.3,0,0,1,.93,1.379.87.87,0,0,1-.127,1.227q-.56.569-1.13,1.13a.869.869,0,0,1-1.228.111c-.639-.422-1.277-.844-1.908-1.277a.518.518,0,0,0-.48-.051,1.2,1.2,0,0,0-.98,1.239,14.253,14.253,0,0,1-.316,1.63.859.859,0,0,1-.928.771c-.555.005-1.11.007-1.665,0a.823.823,0,0,1-.891-.725q-.241-1.121-.45-2.25a.609.609,0,0,0-.355-.452,1.152,1.152,0,0,0-1.479.16,15.868,15.868,0,0,1-1.432.969.866.866,0,0,1-1.2-.113q-.583-.569-1.153-1.153a.856.856,0,0,1-.119-1.2c.426-.649.853-1.3,1.293-1.937a.517.517,0,0,0,.043-.483,1.2,1.2,0,0,0-1.244-.975A14.412,14.412,0,0,1,.8,11.988a.87.87,0,0,1-.768-.934q-.008-.816,0-1.632A.853.853,0,0,1,.772,8.5q1.122-.239,2.25-.448A.613.613,0,0,0,3.47,7.7,1.146,1.146,0,0,0,3.3,6.218a16.5,16.5,0,0,1-.966-1.434.855.855,0,0,1,.119-1.2c.379-.389.755-.783,1.157-1.149A3.7,3.7,0,0,1,4.222,2.062Zm6.03,11.661a3.486,3.486,0,1,0-3.478-3.466A3.478,3.478,0,0,0,10.252,13.723Z" transform="translate(-0.026 -0.005)"/></svg>