<svg xmlns="http://www.w3.org/2000/svg" viewBox="0 0 130.23 184.28"  width='30'  height='50' ><defs><style>.cls-1{fill:#4d4d4d;}.cls-2{fill:#fff;}.cls-3{fill:#313a49;}.cls-4{fill:#232934;}.cls-5{fill:#8fcf4b;}.cls-6{fill:#1a1a1a;}.cls-7,.cls-8,.cls-9{fill:none;stroke:#333;stroke-miterlimit:10;}.cls-7{stroke-width:0.95px;}.cls-8{stroke-width:1.14px;}.cls-9{stroke-width:0.89px;}</style></defs><title>OnTrip</title><g id="Layer_2" data-name="Layer 2"><g id="Layer_1-2" data-name="Layer 1"><path class="cls-1" d="M65.1,184.28c-6.16-7.51-11.9-14.2-17.28-21.15-16.27-21-31.24-42.79-41.16-67.63-6-15-8.83-30.3-4.73-46.38C10.44,15.75,42.79-5,77.25,1c32.4,5.63,55.92,36.49,52.68,69.78a83.47,83.47,0,0,1-5,20.8C112,126.54,89.47,155.4,65.1,184.28Z"/><path class="cls-2" d="M65.29,6.76A58.58,58.58,0,0,0,6.48,65c-.33,32,26.08,58.68,58.25,58.93,32.33.25,59-26.2,59.06-58.62A58.58,58.58,0,0,0,65.29,6.76Z"/><path class="cls-3" d="M54.65,78.37s-1.24,0-3.7-5.64S45.77,62,40.84,60.43l1.28-1.79H62.44s-1.23,12.29,0,16.39c0,2,4.54,2.11,4.54,2.11l-7,1.48Z"/><path class="cls-3" d="M109.35,63.81H96.67L92.19,53.68l2-.73H113.1a1.74,1.74,0,0,1,1.49.77,1.32,1.32,0,0,1,.08,1.29l-3.76,7.88A1.7,1.7,0,0,1,109.35,63.81ZM97.07,63.2h12.28a1.14,1.14,0,0,0,1-.57l3.75-7.88a.72.72,0,0,0-.05-.71,1.13,1.13,0,0,0-1-.48H94.27L93,54Z"/><rect class="cls-3" x="95.11" y="54.73" width="19.28" height="0.61"/><rect class="cls-3" x="95.11" y="56.97" width="17.99" height="0.6"/><rect class="cls-3" x="95.11" y="59.19" width="16.97" height="0.61"/><rect class="cls-3" x="95.11" y="61.42" width="15.94" height="0.61"/><rect class="cls-3" x="107.93" y="53.48" width="0.6" height="9.8"/><rect class="cls-3" x="103.83" y="53.25" width="0.61" height="10.25"/><rect class="cls-3" x="99.21" y="53.25" width="0.61" height="10.25"/><path class="cls-4" d="M100.64,69.15a8.34,8.34,0,1,1-8.34,8.34,8.35,8.35,0,0,1,8.34-8.34m0-3.07a11.42,11.42,0,1,0,11.41,11.41,11.41,11.41,0,0,0-11.41-11.41Z"/><polygon class="cls-4" points="101.15 68.52 100.13 68.52 100.13 86.46 101.15 86.46 101.15 68.52 101.15 68.52"/><polygon class="cls-4" points="93.13 72.56 92.61 73.45 108.15 82.42 108.66 81.53 93.13 72.56 93.13 72.56"/><polygon class="cls-4" points="108.15 72.56 92.61 81.53 93.13 82.42 108.66 73.45 108.15 72.56 108.15 72.56"/><path class="cls-4" d="M36,69.26a8.34,8.34,0,1,1-8.34,8.34A8.35,8.35,0,0,1,36,69.26m0-3.08A11.42,11.42,0,1,0,47.45,77.6,11.41,11.41,0,0,0,36,66.18Z"/><polygon class="cls-4" points="36.54 68.63 35.52 68.63 35.52 86.56 36.54 86.56 36.54 68.63 36.54 68.63"/><polygon class="cls-4" points="28.52 72.67 28.01 73.56 43.54 82.52 44.05 81.64 28.52 72.67 28.52 72.67"/><polygon class="cls-4" points="43.54 72.67 28.01 81.64 28.52 82.52 44.05 73.56 43.54 72.67 43.54 72.67"/><path class="cls-4" d="M54.64,80.4H78.45a0,0,0,0,1,0,0v2.48a3,3,0,0,1-3,3H57.66a3,3,0,0,1-3-3V80.4A0,0,0,0,1,54.64,80.4Z"/><polygon class="cls-3" points="52.31 77.14 81.94 77.14 78.87 81.04 54.74 81.04 52.31 77.14"/><path class="cls-4" d="M100.58,76.32a1.2,1.2,0,1,1-1.2,1.2,1.2,1.2,0,0,1,1.2-1.2m0-3.08a4.28,4.28,0,1,0,4.28,4.28,4.27,4.27,0,0,0-4.28-4.28Z"/><path class="cls-4" d="M36,76.32a1.2,1.2,0,1,1-1.2,1.2,1.2,1.2,0,0,1,1.2-1.2m0-3.08a4.28,4.28,0,1,0,4.28,4.28A4.27,4.27,0,0,0,36,73.24Z"/><path class="cls-5" d="M106.78,69.41a3.32,3.32,0,0,1-3.1.35,8.3,8.3,0,0,0-3-.58,7.14,7.14,0,0,0-.8,0,1.82,1.82,0,0,0-1.57,2.32l1.27,4.34-4.06-2.24A3,3,0,0,0,91.32,75a5.87,5.87,0,0,0-.59,2.52c0,1.17.62,2.22.57,3.32a4.3,4.3,0,0,1-.4,1.79.94.94,0,0,1-1.68-.08,12.48,12.48,0,0,1,18-15.61,1.28,1.28,0,0,1,.06,2.13Z"/><path class="cls-5" d="M47.64,75.89a1.23,1.23,0,0,0,.91-1.51,12.93,12.93,0,0,0-25.4,1.84,1.17,1.17,0,0,0,1.16,1.3h0a1.17,1.17,0,0,0,1.15-1.07A10.64,10.64,0,0,1,30,68.74a1.54,1.54,0,0,1,.86-.25H31a1.58,1.58,0,0,1,1.41.87l.43.87a1.48,1.48,0,0,0,1.32.82h.77a1.48,1.48,0,0,0,1.39-1l.32-.87a1,1,0,0,1,1.07-.62,9.08,9.08,0,0,1,7.17,6.84,1,1,0,0,0,1.24.8Z"/><path class="cls-3" d="M47.69,82.71a3.41,3.41,0,0,1-1.25-.23l-10.79-4a1.09,1.09,0,0,1-.64-.64,1.06,1.06,0,0,1,.1-.9L44,63.8a1.08,1.08,0,0,1,.16-.2l6.51-6.49a1.06,1.06,0,0,1,1.5,0,1,1,0,0,1,0,1.49L45.76,65,37.58,77l9.59,3.53a1.49,1.49,0,0,0,1.3-.13L52.39,78a1.06,1.06,0,0,1,1.46.35,1,1,0,0,1-.35,1.45l-3.92,2.42A3.57,3.57,0,0,1,47.69,82.71Z"/><path class="cls-5" d="M100.41,78.58a1.08,1.08,0,0,1-.75-.66L90.53,53.67a1.06,1.06,0,1,1,2-.75l9.12,24.25a1.07,1.07,0,0,1-.62,1.37A1.16,1.16,0,0,1,100.41,78.58Z"/><path class="cls-4" d="M58.24,89.68a.78.78,0,0,1-.75-.6l-1-4.16a.79.79,0,0,1,.58-.93.77.77,0,0,1,.92.58l1,4.17a.78.78,0,0,1-.58.92Z"/><path class="cls-5" d="M94.37,48.37H89.93a1.27,1.27,0,0,1-1.26-1.26h0a1.26,1.26,0,0,1,1.26-1.26h4.44a1.26,1.26,0,0,1,1.26,1.26h0A1.27,1.27,0,0,1,94.37,48.37Z"/><path class="cls-5" d="M97.66,50.34a1.06,1.06,0,0,1-1.38,1,4.47,4.47,0,0,1,0-8.5,1.06,1.06,0,0,1,1.38,1Z"/><path class="cls-4" d="M86.45,40.28c-1.64-3.78.5-8.34.6-8.53l.34.16c0,.05-2.16,4.6-.59,8.22Z"/><path class="cls-4" d="M86.32,40.62l-.1-.24c-1.69-3.89.5-8.54.59-8.74l.12-.23.8.38-.11.24s-2.11,4.49-.58,8l.1.23Z"/><ellipse class="cls-5" cx="87.1" cy="30.32" rx="1.24" ry="3.04" transform="translate(-2.08 6.8) rotate(-4.42)"/><path class="cls-3" d="M47.86,51.2H58.44a3.93,3.93,0,0,1,3.93,3.93V59.4a0,0,0,0,1,0,0H46a0,0,0,0,1,0,0V53.1A1.9,1.9,0,0,1,47.86,51.2Z"/><path class="cls-3" d="M29.57,51.2H46a0,0,0,0,1,0,0v5.85a2.35,2.35,0,0,1-2.35,2.35H31.47a1.9,1.9,0,0,1-1.9-1.9V51.2a0,0,0,0,1,0,0Z" transform="translate(75.53 110.61) rotate(180)"/><path class="cls-5" d="M62.37,59.92l-12.32.47a1,1,0,0,0-.9.65l-.55,1.42a1.05,1.05,0,0,0,0,.85l6.24,11.4a1,1,0,0,0,.9.58h6.59S61.16,72.56,62.37,59.92Z"/><rect class="cls-6" x="29.57" y="59.07" width="32.8" height="0.66"/><rect class="cls-5" x="92.16" y="45.51" width="3.33" height="19.04" rx="1.31" transform="translate(-13.89 39.92) rotate(-22.41)"/><path class="cls-5" d="M92.07,51.52,87.3,40.32,85.17,41.7l4.77,11.2a8,8,0,0,1,.82,7L80.34,77.55A3.71,3.71,0,0,1,76.84,80H57.29a3.83,3.83,0,0,1-3.5-2.29L48.41,67a8.77,8.77,0,0,0-1.47-2.32l-2-2.26A9,9,0,0,0,38.2,59.4h-13a1.27,1.27,0,0,0-1.27,1.27h0a1.27,1.27,0,0,0,1.27,1.27h13A6.46,6.46,0,0,1,43,64.13l2,2.27a6.26,6.26,0,0,1,1.06,1.66l5.38,10.7a6.37,6.37,0,0,0,5.82,3.8H76.84a6.28,6.28,0,0,0,5.9-4.16L93.15,60.74A10.52,10.52,0,0,0,92.07,51.52Z"/><path class="cls-4" d="M88.7,40.69a3,3,0,1,1-3-3A3,3,0,0,1,88.7,40.69Z"/><circle class="cls-3" cx="84.57" cy="40.07" r="2.4"/><path class="cls-5" d="M84.57,39.16A1.53,1.53,0,1,1,83,37.63,1.53,1.53,0,0,1,84.57,39.16Z"/><rect class="cls-5" x="23.93" y="57.35" width="2.56" height="4.61" rx="1.01"/><rect class="cls-6" x="45.63" y="53" width="0.66" height="6.41"/><line class="cls-7" x1="23.15" y1="53.98" x2="14.15" y2="53.98"/><line class="cls-8" x1="23.15" y1="57.48" x2="10.15" y2="57.48"/><line class="cls-9" x1="23.15" y1="61.48" x2="15.15" y2="61.48"/></g></g></svg>