<svg xmlns="http://www.w3.org/2000/svg" viewBox="0 0 130.23 184.28" width='30' height='50'><defs><style>.cls-1{fill:#4d4d4d;}.cls-2{fill:#fff;}.cls-3{fill:#f7931e;}</style></defs><g id="Layer_2" data-name="Layer 2"><g id="Layer_1-2" data-name="Layer 1"><path class="cls-1" d="M65.1,184.28c-6.16-7.51-11.9-14.2-17.28-21.15-16.27-21-31.24-42.79-41.16-67.63-6-15-8.83-30.3-4.73-46.38C10.44,15.75,42.79-5,77.25,1c32.4,5.63,55.92,36.49,52.68,69.78a83.47,83.47,0,0,1-5,20.8C112,126.54,89.47,155.4,65.1,184.28Z"/><path class="cls-2" d="M65.29,6.76A58.58,58.58,0,0,0,6.48,65c-.33,32,26.08,58.68,58.25,58.93,32.33.25,59-26.2,59.06-58.62A58.58,58.58,0,0,0,65.29,6.76Z"/><path class="cls-3" d="M52.66,34.92c0-2.36,0-4.72,0-7.08a1.22,1.22,0,0,1,.89-1.36A29.06,29.06,0,0,1,58.31,25a1,1,0,0,0,.94-1.16c0-2,.81-2.82,2.82-2.82s4.21,0,6.31,0c1.76,0,2.67.86,2.62,2.58,0,.89.26,1.31,1.13,1.48a29.07,29.07,0,0,1,4.44,1.43A1.4,1.4,0,0,1,77.62,28c0,4.61,0,9.22,0,13.83a3.29,3.29,0,0,0,1.19,2.91,2.88,2.88,0,0,0,3.17.32,2.77,2.77,0,0,0,1.67-2.62c0-3.55,0-7.09,0-10.63,0-.31-.16-.72.16-.88s.55.22.78.41A32.31,32.31,0,0,1,96.24,51.8a7.6,7.6,0,0,1,.17,1.89A2.31,2.31,0,0,0,97.62,56c.83.57,1.61,1.22,2.41,1.83a2.3,2.3,0,0,1,.7,3.2,12,12,0,0,1-5.35,4.61,40.09,40.09,0,0,1-11.76,3.65,100.58,100.58,0,0,1-12,1.25c-3.83.21-7.66.22-11.49.1a81.27,81.27,0,0,1-18-2.23,27.33,27.33,0,0,1-9.54-4.13,9.08,9.08,0,0,1-3.17-3.69A2.07,2.07,0,0,1,29.88,58c.92-.84,1.86-1.64,2.83-2.42a1.56,1.56,0,0,0,.61-1.24,32,32,0,0,1,12.44-23.3c.2-.17.39-.54.71-.35s.15.53.15.81c0,3.63,0,7.26,0,10.89a2.82,2.82,0,0,0,3,2.94,3,3,0,0,0,3-3.1c0-2.45,0-4.9,0-7.35Z"/><path class="cls-1" d="M58.19,102.46c.06-3-.11-2.83-2.78-3.73a30.59,30.59,0,0,1-4.11-1.79,2,2,0,0,0-2.79.45c-.65.65-1.29,1.31-2,1.94a2.65,2.65,0,0,1-3.68.37,20,20,0,0,1-6.43-6.52,2.54,2.54,0,0,1,.41-3.58c.68-.7,1.39-1.38,2.07-2.08a1.82,1.82,0,0,0,.42-2.5A32.09,32.09,0,0,1,37,79.36,1.79,1.79,0,0,0,35.08,78c-1.06,0-2.13,0-3.2,0a2.66,2.66,0,0,1-2.71-2.21,20.53,20.53,0,0,1,0-9.16c0-.09,0-.17.07-.25.37-1.27.55-1.32,1.58-.54a29.21,29.21,0,0,0,10,4.63,28.67,28.67,0,0,0,3.27.76,1.22,1.22,0,0,1,1.2,1.35,18.55,18.55,0,0,0,4,10.6c4.72,6,11,8.68,18.54,7.72a19.67,19.67,0,0,0,17.17-17s0-.06,0-.09c.11-.81-.15-1.82.43-2.39s1.57-.45,2.38-.64c4.36-1,8.53-2.45,12.06-5.32.46-.38.72-.18,1,.23a5.09,5.09,0,0,1,.46,1.48,19.9,19.9,0,0,1-.22,8.82A2.59,2.59,0,0,1,98.65,78c-1.15.15-2.3,0-3.45.06a1.76,1.76,0,0,0-1.94,1.37,38.45,38.45,0,0,1-2.4,5.74,1.69,1.69,0,0,0,.4,2.33c.69.7,1.4,1.38,2.07,2.09a2.72,2.72,0,0,1,.33,3.89,20.51,20.51,0,0,1-6.36,6.25,2.71,2.71,0,0,1-3.69-.35c-.74-.69-1.43-1.42-2.15-2.13a1.73,1.73,0,0,0-2.34-.38,38.8,38.8,0,0,1-5.58,2.31A1.93,1.93,0,0,0,72,101.35c0,1,0,2.08,0,3.11a2.48,2.48,0,0,1-2,2.53,20.36,20.36,0,0,1-9.66,0,2.61,2.61,0,0,1-2-2.51C58.16,103.85,58.19,103.28,58.19,102.46Z"/></g></g></svg>