<svg xmlns="http://www.w3.org/2000/svg" xmlns:xlink="http://www.w3.org/1999/xlink" width="69.166" height="122.467" viewBox="0 0 69.166 122.467"><defs><style>.a{fill:#f0c894;}.b,.t{fill:#fff7cc;}.c{fill:#178385;}.d{fill:#b86053;}.e{fill:#cfac80;}.f{fill:#32bda8;}.g{fill:url(#a);}.h{fill:url(#b);}.i{fill:#9e5339;}.j{fill:url(#c);}.k{fill:#ba6e54;}.l{fill:url(#d);}.m{fill:#00ebaa;}.n{fill:#fff;opacity:0.41;}.o{fill:url(#e);}.p{fill:url(#f);}.q{fill:#540f23;}.r{fill:#c77e67;}.s{fill:#9c4448;}.t{opacity:0.17;}.u{fill:#8c2e32;}</style><linearGradient id="a" x1="22.505" y1="-0.027" x2="23.51" y2="1.025" gradientUnits="objectBoundingBox"><stop offset="0" stop-color="#ffcb5d"/><stop offset="0.743" stop-color="#ed8e26"/><stop offset="0.84" stop-color="#eb861f"/></linearGradient><linearGradient id="b" x1="97.163" y1="-0.297" x2="97.98" y2="1.62" gradientUnits="objectBoundingBox"><stop offset="0" stop-color="#ff8759"/><stop offset="0.762" stop-color="#ab1535"/><stop offset="0.817" stop-color="#ad1836"/><stop offset="0.86" stop-color="#b52239"/><stop offset="0.899" stop-color="#c1333e"/><stop offset="0.936" stop-color="#d24a46"/><stop offset="0.971" stop-color="#e8684f"/><stop offset="1" stop-color="#ff8759"/></linearGradient><linearGradient id="c" x1="25.131" y1="-0.232" x2="25.397" y2="0.966" gradientUnits="objectBoundingBox"><stop offset="0" stop-color="#8a8677"/><stop offset="0.171" stop-color="#706d61"/><stop offset="0.74" stop-color="#201f1b"/><stop offset="1"/></linearGradient><linearGradient id="d" x1="26.344" y1="-0.042" x2="26.937" y2="0.889" gradientUnits="objectBoundingBox"><stop offset="0.005" stop-color="#22567d"/><stop offset="0.255" stop-color="#204e76"/><stop offset="0.63" stop-color="#1a3a62"/><stop offset="1" stop-color="#131f49"/></linearGradient><linearGradient id="e" x1="37.203" y1="-0.063" x2="37.803" y2="1.133" xlink:href="#a"/><linearGradient id="f" x1="39.662" y1="-0.006" x2="40.459" y2="1.496" xlink:href="#c"/></defs><g transform="translate(7.059 26.984)"><path class="a" d="M53.36,122.88l-3.96.078c.23,1.385.43,2.774.595,4.185l3.247-.282Z" transform="translate(-35.012 -96.515)"/><path class="b" d="M58.367,122.631l-.117,3.977,10.685-.933c-.078-1.077-.165-2.153-.274-3.234Z" transform="translate(-40.02 -96.266)"/><path class="b" d="M92.579,119.16,83.8,120.571c.1,1.068.174,2.153.23,3.247l8.188-.365C92.34,121.991,92.461,120.519,92.579,119.16Z" transform="translate(-54.477 -94.41)"/><path class="c" d="M52.139,151.731c-.013.217-.017.434-.039.656l2.4-.269.017-.608Z" transform="translate(-36.54 -112.715)"/><path class="c" d="M67.647,146.7l-9.99.933-.017.608L67.769,147.1l1.081-1.511.86,1.511,6.96-.226c.017-.178.03-.36.043-.538l-6.313.252-1.077-1.58-.23-.339-.243.339Z" transform="translate(-39.675 -108.845)"/><path class="d" d="M54.027,132.04l-3.247.282q.488,4.135.617,8.392l2.384-.226Z" transform="translate(-35.793 -101.698)"/><path class="d" d="M28.97,72.235c.408,5.305,1.038,10.233,2.475,13.845a14.542,14.542,0,0,1,5.97,5.253q.228,1.179.43,2.371l3.96-.078.069-2.292-7.025-6.3L31.657,71.18C30.754,71.514,29.838,71.866,28.97,72.235Z" transform="translate(-23.452 -67.261)"/><path class="e" d="M20.463,270.89l6.2-3.426a20.78,20.78,0,0,0-2.34-.434,19.1,19.1,0,0,0-6.855,3.478,5.265,5.265,0,0,0-1.2,3.056h3.66Z" transform="translate(-16.26 -178.081)"/><path class="e" d="M65,274.929h2.236q.449-2.748.89-5.479c-.738.239-1.48.5-2.223.79h0C65.617,271.79,65.317,273.362,65,274.929Z" transform="translate(-43.839 -179.451)"/><path class="a" d="M25.233,271.45l-.543,2.67H36.959c.226-1.159.456-2.318.677-3.478a20.723,20.723,0,0,0-6.2-2.622h0Z" transform="translate(-21.03 -178.641)"/><path class="a" d="M70.15,273.186H83.366a5.874,5.874,0,0,0,.738-3.217,12.134,12.134,0,0,0-5.644-3.6,26.291,26.291,0,0,0-7.42,1.337Q70.6,270.442,70.15,273.186Z" transform="translate(-46.753 -177.708)"/><path class="c" d="M67.07,211.924h0q1.114-.43,2.223-.79c2.531-15.769,4.663-30.843,6.087-44.744l-5.727,2.292,3.083-.647A405.371,405.371,0,0,1,67.07,211.924Z" transform="translate(-45.01 -121.135)"/><path class="c" d="M37.18,202.88,44.5,160.832l.239-7.932-2.4.269a254.727,254.727,0,0,1-7.5,49.273,22.929,22.929,0,0,1,2.34.434h0Z" transform="translate(-26.773 -113.502)"/><path class="f" d="M47.544,157.4,40.22,199.444a20.613,20.613,0,0,1,6.2,2.622c3.035-15.287,6.447-30.261,8.041-44.449l5.727-2.292c-1.424,13.9-3.556,28.976-6.087,44.744a26.139,26.139,0,0,1,7.42-1.337c2.192-16.355,3.829-33.283,5.284-50.627l-6.96.226-.86-1.511L57.9,148.331l-10.129,1.142Z" transform="translate(-29.818 -110.061)"/><path class="d" d="M79.305,99.348c-.1-.139-.2-.287-.3-.43q.892,5.028,1.4,9.994.163,1.622.274,3.234c.161,2.262.252,4.515.256,6.76l.243-.339.23.339c.056-2.292.017-4.55-.1-6.76-.056-1.094-.135-2.179-.23-3.247a85.412,85.412,0,0,0-1.58-10.359C79.44,98.809,79.375,99.078,79.305,99.348Z" transform="translate(-51.767 -82.742)"/><path class="g" d="M55.874,93.761c.161,2.262.252,4.515.256,6.76l-1.2,1.693-9.99.933.252-8.449ZM64.7,93.4l-8.188.365c.117,2.21.152,4.467.1,6.76l1.077,1.58,6.313-.252c.026-.274.043-.551.069-.825C64.205,99.4,64.448,96.44,64.7,93.4Zm-8.5-24.816c0,.282.013.564.013.847A47.378,47.378,0,0,1,54.7,80.15a85.413,85.413,0,0,1,1.58,10.359L65.056,89.1c.265-3.148.469-5.644.482-5.774-.109-6.317-1.224-11.844-3.842-16.19a32.887,32.887,0,0,0-6.491-1.094l1.706,1.172.421,2.21Zm-21.035-.3,3.191,13.858,7.02,6.291L45.3,90.718,55.6,90.526q-.5-4.969-1.4-9.994a79.871,79.871,0,0,0-7.216-9.278c-.252-.265-.495-.521-.738-.755l-.482.564L40.313,66.5C39.024,66.921,37.118,67.551,35.16,68.276Z" transform="translate(-26.954 -64.352)"/><path class="h" d="M43.891,82.679a.78.78,0,0,1,.352-.321,1.97,1.97,0,0,1,.821-.148,4.06,4.06,0,0,1,.795.1,5.136,5.136,0,0,0-.781.052,1.8,1.8,0,0,0-.7.23.425.425,0,0,0-.208.5,1.533,1.533,0,0,0,.378.569,5.611,5.611,0,0,0,1.22.873,9.417,9.417,0,0,0,1.4.63,8.892,8.892,0,0,0,1.2.356,8.106,8.106,0,0,1-2.926-1.771,2.073,2.073,0,1,1,3.625,1.9,3.638,3.638,0,0,0,1.042,0,.749.749,0,0,0,.521-.287.65.65,0,0,0-.087-.6,4.443,4.443,0,0,0-1.051-1.129,3.655,3.655,0,0,1,1.276.981,1.416,1.416,0,0,1,.2.4.748.748,0,0,1-.013.495.786.786,0,0,1-.33.378,1.508,1.508,0,0,1-.417.178,2.954,2.954,0,0,1-.842.1,6.394,6.394,0,0,1-.764-.056A2.073,2.073,0,0,1,45.4,84.915a5.066,5.066,0,0,1-1.172-.968,2.578,2.578,0,0,1-.252-.352,1.216,1.216,0,0,1-.165-.43A.772.772,0,0,1,43.891,82.679Z" transform="translate(-31.844 -73.502)"/><path class="f" d="M64.461,71.087l-2.071,2.4a80.347,80.347,0,0,1,7.216,9.278c.1.139.2.287.3.43.069-.269.135-.538.2-.808A47.379,47.379,0,0,0,71.616,71.66l-2.492-1.68L68.143,74.6Z" transform="translate(-42.362 -66.582)"/><path class="c" d="M63.5,67.743l-2.8,3.282c.243.239.486.495.738.755l2.071-2.4L67.2,72.9l.981-4.624,2.492,1.68q0-.423-.013-.847l-2.844-2.14-.781,5.279Z" transform="translate(-41.406 -64.879)"/><path class="f" d="M77.06,63.67V65.1L79.9,67.239l1.133.847-.421-2.21L78.91,64.7Z" transform="translate(-50.663 -63.011)"/><path class="f" d="M49.023,62.35,47.03,64.417l5.453,4.554.478-.56,2.809-3.282Z" transform="translate(-33.671 -62.265)"/><path class="i" d="M51.62,62.239l6.747,2.779,3.517,4.5.781-5.279V62.812A44.242,44.242,0,0,0,51.62,62.239Z" transform="translate(-36.268 -62.153)"/><path class="j" d="M58.981,66.05a33.592,33.592,0,0,1,6.491,1.094c2.622,4.342,3.734,9.873,3.842,16.19-.013.13-.217,2.627-.482,5.774l-8.779,1.411a85.412,85.412,0,0,0-1.58-10.359,47.379,47.379,0,0,0,1.511-10.724q0-.423-.013-.847l1.133.847-.421-2.21Zm1.307,27.717q.085,1.641.113,3.308,1.96,2.442,4.02,4.915l3.352-.135c.026-.274.043-.551.069-.825.139-1.628.386-4.589.634-7.632Zm-2.384.152q.931,1.2,1.893,2.4c-.039-.851-.078-1.7-.139-2.553ZM41.84,67.257c2.457,7.216,7.368,15.109,13.533,23.349l4.007-.074q-.5-4.969-1.4-9.994a79.872,79.872,0,0,0-7.216-9.278c-.252-.265-.495-.521-.738-.755l-.482.564L44.093,66.51C43.468,66.714,42.691,66.966,41.84,67.257Z" transform="translate(-30.734 -64.358)"/></g><g transform="translate(0 31.958)"><path class="c" d="M.4,114.91c-.135.282-.269.569-.4.86a60.845,60.845,0,0,0,9.426,8.084c.282-.326.556-.664.812-1.007A112.812,112.812,0,0,1,.4,114.91Z" transform="translate(0 -96.979)"/><path class="f" d="M13.1,73.61A58.993,58.993,0,0,0,.92,91.541a112.168,112.168,0,0,0,9.842,7.936,20.439,20.439,0,0,0,3.269-5.926l0,0Q12.942,92.257,11.9,90.8c2.987-2.835,3.96-3.933,5.4-7.224C16.411,79.771,15.434,76,13.1,73.61Z" transform="translate(-0.521 -73.61)"/><path class="a" d="M21.71,134.2a33.861,33.861,0,0,0,3.421,2.032c.239-.3.46-.595.677-.9q-1.6-.951-3.287-2.14C22.266,133.529,21.992,133.872,21.71,134.2Z" transform="translate(-12.284 -107.323)"/><path class="b" d="M23.58,125.461q1.68,1.185,3.287,2.14a12.343,12.343,0,0,0,2.3-5.592,32.6,32.6,0,0,1-2.314-2.479l0,0A20.227,20.227,0,0,1,23.58,125.461Z" transform="translate(-13.343 -99.593)"/><path class="i" d="M30.267,138.12c-.217.3-.443.6-.677.9a22.732,22.732,0,0,0,6.747,2.288l2.453-.339a34.692,34.692,0,0,1-5.709-1.346C32.165,139.192,31.227,138.684,30.267,138.12Z" transform="translate(-16.743 -110.112)"/><path class="k" d="M33.451,124.714a12.229,12.229,0,0,1-2.3,5.592c.959.564,1.9,1.068,2.813,1.5a34.7,34.7,0,0,0,5.709,1.346c.091-.447.187-.9.287-1.346l-2.388-.725.082-.482a13,13,0,0,1,2.427.7c.1-.408.2-.821.313-1.229h0l-2.4-.677.122-.53a9.593,9.593,0,0,1,2.4.755h0c.13-.486.269-.973.421-1.467h0l-2.8-1.415.03-.347,1.728-.443,1.954,2.088.634-1.055-1.454-2.41-3.035-.256a5.414,5.414,0,0,0-1.572.556,42.691,42.691,0,0,0-.7,5.162l-1.55.4a11.666,11.666,0,0,1,.916-4.268C34.532,125.712,33.989,125.226,33.451,124.714Z" transform="translate(-17.626 -102.298)"/><path class="i" d="M38.12,131.157l1.55-.4a42.46,42.46,0,0,1,.7-5.162l-1.333,1.294A11.643,11.643,0,0,0,38.12,131.157Z" transform="translate(-21.57 -103.028)"/><path class="i" d="M46.022,138.8l-.082.482,2.388.725c.039-.174.078-.339.122-.508A13,13,0,0,0,46.022,138.8Z" transform="translate(-25.995 -110.497)"/><path class="i" d="M47.032,134.79l-.122.53,2.4.677h0c.03-.148.078-.3.122-.456h0A9.706,9.706,0,0,0,47.032,134.79Z" transform="translate(-26.544 -108.228)"/><path class="i" d="M47.27,128.513l-.03.347,2.8,1.415h0c.017-.065.039-.135.056-.2l.851.082L49,128.07Z" transform="translate(-26.73 -104.426)"/></g><g transform="translate(41.796 28.676)"><path class="f" d="M96.27,68.57a27.365,27.365,0,0,1,3.391,10.185l2.562-4.611v0C101.35,71.93,99.192,70.129,96.27,68.57Z" transform="translate(-96.27 -67.476)"/><path class="l" d="M119.321,83.021l.178.13-.53.864-1.216-.764.59-1.007Zm-15.673,7.507-.078.873L112.231,95l3.382-5.522-.091-.043-.43-1,.621-.955.139-.213-.321-.252-1.954,3.326-1.9,3.243Zm.308-3.677-.308,3.677,8.032,3.048,1.9-3.243Zm2.4-14.132-2.562,4.611c.03.23.065.469.1.7l6.369-11.219,15.608,2.614L119.4,80.442l1.337.643.013.013,7.02-11.436-.556-1.077L110.052,66.05l-3.695,6.664v0Z" transform="translate(-100.401 -66.05)"/><path class="m" d="M110.669,67.82,104.3,79.039a51.745,51.745,0,0,1,.36,5.44l-.287,3.378L114,91.343l1.954-3.326-.5-.4-.165-1.511.686-1.155.269-.469.79-1.324.569.287.347.673.217.139.59-1.007-.66-.525-.26-.9.712-.981,1.268.6,6.465-11.015Z" transform="translate(-100.814 -67.052)"/><path class="k" d="M130.3,104.927l-.686,1.151.165,1.511.5.4.321.252,3.287,1.454-.256.391-2.318-.781-.855-.851-.621.951.43,1,.091.043,2.857,1.307,1.064-.365,2.331-4.563-1.7-1.081L133.7,105l-1.22-.764-.217-.139-.347-.673-.569-.291-.786,1.329.7,1.129,3.452,2.067-.139.486L130.9,106.2Z" transform="translate(-115.135 -87.031)"/><path class="i" d="M131.459,106.19l-.269.469.6,1.272,3.686,1.941.139-.486-3.452-2.067Z" transform="translate(-116.029 -88.763)"/><path class="i" d="M131.55,115.123l.855.851,2.318.781.256-.391-3.287-1.454Z" transform="translate(-116.233 -93.697)"/><path class="k" d="M138.8,99.075l-.013-.013-1.342-.638-1.268-.6-.708.981,2.236,1.48,2.991,2.913.269-2.006Z" transform="translate(-118.451 -84.027)"/><path class="i" d="M135.47,100.08l.26.894.66.525.981.777.178.13,1.207.881-.534.738,1.7,1.081.777-.634-2.991-2.913Z" transform="translate(-118.451 -85.306)"/><path class="n" d="M127.48,69.75,107.5,91.784l-2.366-.647L117.447,68.27Z" transform="translate(-101.283 -67.306)"/></g><g transform="translate(18.18)"><path class="o" d="M44.776,3.326a11.908,11.908,0,0,0-1.315,10.307,24.594,24.594,0,0,1,5.748-3.92,24.347,24.347,0,0,1,4.78-2.353,37.046,37.046,0,0,1,7.472.23A10.493,10.493,0,0,0,54.645,0,16.632,16.632,0,0,0,44.776,3.326Z" transform="translate(-42.425)"/><path class="b" d="M67.591,6.984a.524.524,0,0,1,.221-.2,1.162,1.162,0,0,1,.521-.091,2.8,2.8,0,0,1,.5.061,3.09,3.09,0,0,0-.495.035,1.183,1.183,0,0,0-.443.143.263.263,0,0,0-.13.317.934.934,0,0,0,.239.36,3.418,3.418,0,0,0,.773.551,5.96,5.96,0,0,0,.881.4,5.253,5.253,0,0,0,.76.226,5.179,5.179,0,0,1-1.85-1.12,1.312,1.312,0,0,1,2.557.412,1.333,1.333,0,0,1-.26.786,2.582,2.582,0,0,0,.66,0,.468.468,0,0,0,.33-.182A.4.4,0,0,0,71.8,8.3a2.782,2.782,0,0,0-.664-.712,2.32,2.32,0,0,1,.808.621.783.783,0,0,1,.126.247.457.457,0,0,1-.009.313.492.492,0,0,1-.208.239.937.937,0,0,1-.265.113,2.038,2.038,0,0,1-.534.061,3.492,3.492,0,0,1-.482-.039A1.3,1.3,0,0,1,68.55,8.4a3.1,3.1,0,0,1-.738-.612,1.567,1.567,0,0,1-.156-.221.809.809,0,0,1-.1-.269A.4.4,0,0,1,67.591,6.984Z" transform="translate(-56.396 -3.785)"/><path class="p" d="M62.319,8.241A11.746,11.746,0,0,0,55.837.8a18.458,18.458,0,0,0-9.63,3.191A7.535,7.535,0,0,0,44.94,6.67a10.8,10.8,0,0,1,1.576-2.353A24.3,24.3,0,0,1,54.839,2.25a8.65,8.65,0,0,1,1.207,5.887Z" transform="translate(-43.609 -0.453)"/><path class="d" d="M57.51,19.188a62.192,62.192,0,0,1,12.795.946l2.071.46A6.119,6.119,0,0,0,73.6,18.346a11.727,11.727,0,0,0-3.842-1.281,37.046,37.046,0,0,0-7.472-.23A24.472,24.472,0,0,0,57.51,19.188Z" transform="translate(-50.722 -9.476)"/><path class="q" d="M50.018,22.369a24.727,24.727,0,0,0-5.748,3.92l.165,1.962,5.106-2.318-.026-1.2,1.012-.729,12.243.812.039-1.5A61.84,61.84,0,0,0,50.018,22.369Z" transform="translate(-43.23 -12.657)"/><path class="k" d="M43.334,31.034c-2.179.352-2.236,4.729,1.173,5.875l1.524,5.748a55.557,55.557,0,0,0,7.25,1.606,39.757,39.757,0,0,0,7.962-.877l.045-16.242L58.74,25.425h0c.065.36.109.725.139,1.09a2.056,2.056,0,0,1-1.116.63,11.041,11.041,0,0,1-2.6-.6c.017-.339.043-.677.078-1.02l-4.471.052-.847-.165H48.741L44.08,30.6C43.772,30.143,43.816,31,43.334,31.034Z" transform="translate(-41.804 -15.587)"/><path class="r" d="M72.858,36.686c-.03.339-.056.677-.078,1.02a11.491,11.491,0,0,0,2.6.6,2,2,0,0,0,1.116-.63c-.03-.365-.078-.729-.139-1.09a13.307,13.307,0,0,0-1.168-3.6,3.442,3.442,0,0,0-1.8.217A25.369,25.369,0,0,0,72.858,36.686Z" transform="translate(-59.362 -18.651)"/><path class="d" d="M89.007,25.015l-2.1.573.03-1.038Z" transform="translate(-67.358 -13.891)"/><path class="q" d="M67.584,31.145a.931.931,0,0,0-.721-.829,1.437,1.437,0,0,0-1.12.239,3.147,3.147,0,0,0-.8.855,7.137,7.137,0,0,1,.7-.521,1.562,1.562,0,0,0-.148.3,2.334,2.334,0,0,0-.135.621,2.275,2.275,0,0,0,.074.786c.135.473.647.916,1,.36a2.3,2.3,0,0,0,.3-1.784,1.01,1.01,0,0,0-.269-.512c-.022-.017-.039-.026-.056-.039a1.253,1.253,0,0,1,.36,0A1.138,1.138,0,0,1,67.584,31.145Z" transform="translate(-54.926 -17.135)"/><path class="q" d="M84.1,32.464a1.439,1.439,0,0,0-.3-.725.9.9,0,0,0-.69-.339.66.66,0,0,0-.612.425.376.376,0,0,1,.23-.139.88.88,0,0,0-.187.326,2.387,2.387,0,0,0,0,1.467c.048.143.126.3.26.326.156.035.3-.117.386-.269a2.22,2.22,0,0,0,.3-1.211,1.062,1.062,0,0,0-.152-.534,1.146,1.146,0,0,1,.126.065A2.132,2.132,0,0,1,84.1,32.464Z" transform="translate(-64.819 -17.767)"/><g transform="translate(7.794 19.659)"><path class="s" d="M71.139,48.836s-.208,2.514-1.281,3.152c-1.385.825-4.294.148-5.075-.334S62.63,48.61,62.63,48.61A29.759,29.759,0,0,0,71.139,48.836Z" transform="translate(-61.413 -47.164)"/><path class="t" d="M71.345,48.958a2.409,2.409,0,0,1-.512,1.32,4.1,4.1,0,0,1-2.535.786c-1.823.1-5-1.689-5.2-2.284C66.426,49.6,69.321,49.857,71.345,48.958Z" transform="translate(-61.679 -47.26)"/><path class="u" d="M69.515,46.7a4.88,4.88,0,0,1-2.657.768,13.032,13.032,0,0,1-6.6-1.4c.109-.278.221-.547.339-.786a1.95,1.95,0,0,0-.725,1.919c.078-.269.178-.564.282-.86a15.686,15.686,0,0,0,4.4,1.363,8.961,8.961,0,0,0,4.663-.547.78.78,0,0,0,.287-.178A.228.228,0,0,0,69.515,46.7Z" transform="translate(-59.827 -45.28)"/><path class="u" d="M72.408,48.1a7.492,7.492,0,0,0-2.336-.339,27.649,27.649,0,0,0-5.132.638,11.471,11.471,0,0,0,3.643.686C72.091,49.12,72.408,48.1,72.408,48.1Z" transform="translate(-62.72 -46.68)"/></g><path class="u" d="M42.967,40.823a.588.588,0,0,1,.082-.773.931.931,0,0,1,.825-.191,1.2,1.2,0,0,1,.747.508,1.117,1.117,0,0,1,.148.868c-.069-.113-.256-.135-.4-.126a.575.575,0,0,0-.373.139.413.413,0,0,0-.061.478.679.679,0,0,0,.408.313,1.357,1.357,0,0,0,.53.035,1.13,1.13,0,0,1-.117.712.7.7,0,0,0-.013-.46,1.216,1.216,0,0,1-.938-.447.578.578,0,0,1-.109-.638.554.554,0,0,1,.4-.247,1.56,1.56,0,0,1,.491.022,1.134,1.134,0,0,0-.677-.946.7.7,0,0,0-.46-.048.6.6,0,0,0-.347.3A1.609,1.609,0,0,0,42.967,40.823Z" transform="translate(-42.431 -22.54)"/><path class="q" d="M46.22,32.637l1.547,5.683L49.1,36.544l-.535-4.337Z" transform="translate(-44.46 -18.826)"/></g></svg>