<svg xmlns="http://www.w3.org/2000/svg" viewBox="0 0 130.23 184.28" width='30' height='50'><defs><style>.cls-1{fill:#4d4d4d;}.cls-2{fill:#fff;}.cls-3{fill:gray;}.cls-4{fill:#8cc63f;}.cls-4,.cls-5{stroke:#fff;}.cls-4,.cls-5,.cls-6{stroke-miterlimit:10;}.cls-5,.cls-6{fill:none;}.cls-5{stroke-width:3.99px;}.cls-6{stroke:red;stroke-width:3.99px;}.cls-7{fill:red;}</style></defs><title>GeoFenceViolation</title><g id="Layer_2" data-name="Layer 2"><g id="Layer_1-2" data-name="Layer 1"><path class="cls-1" d="M65.1,184.28c-6.16-7.51-11.9-14.2-17.28-21.15-16.27-21-31.24-42.79-41.16-67.63-6-15-8.83-30.3-4.73-46.38C10.44,15.75,42.79-5,77.25,1c32.4,5.63,55.92,36.49,52.68,69.78a83.47,83.47,0,0,1-5,20.8C112,126.54,89.47,155.4,65.1,184.28Z"/><path class="cls-2" d="M65.29,6.76A58.58,58.58,0,0,0,6.48,65c-.33,32,26.08,58.68,58.25,58.93,32.33.25,59-26.2,59.06-58.62A58.58,58.58,0,0,0,65.29,6.76Z"/><path id="Path_2436" data-name="Path 2436" class="cls-2" d="M61.05,55.59c-.18-3.61-.37-7.21-.52-10.82a3.41,3.41,0,0,1,2.83-3.93,3.16,3.16,0,0,1,1,0h1.85A3.34,3.34,0,0,1,69.68,44a2.54,2.54,0,0,1,0,.39c-.17,4.16-.4,8.33-.62,12.48-.15,3-.31,6-.46,9,0,.5,0,1-.1,1.5a3.45,3.45,0,0,1-6.89-.23c-.2-3.85-.37-7.73-.56-11.59Z"/><path id="Path_2437" data-name="Path 2437" class="cls-2" d="M65,85.58a4.92,4.92,0,1,1,0-9.83h.19a4.92,4.92,0,1,1,0,9.83Z"/><path class="cls-3" d="M59.2,109.2c-3.35,2.58-8.31.89-11.59-1.78s-5.89-6.27-9.74-8c-3.11-1.41-7-1.62-9.13-4.29s-1.38-6.76.06-9.94,3.49-6.26,3.56-9.75c.08-4.08-2.52-7.64-4.47-11.23s-3.2-8.32-.68-11.53c1.44-1.85,3.9-2.81,5-4.88,2.5-4.7-2.89-12.65,2.27-14.74a5.94,5.94,0,0,1,4.23.1c4.17,1.52,8.37-.38,11-3.6a26.31,26.31,0,0,1,24.39-8.92c3,.47,6,1,9,1.59a35.49,35.49,0,0,1,8,2.34c6,2.78,10,8.37,13.84,13.73,2.94,4.14,5.92,8.35,7.52,13.16s1.66,10.4-1.06,14.68C107.68,72.05,98.66,73.75,93,69.6c2.53,2.06,1.9,6.37-.41,8.67s-5.67,3.13-8.84,3.86l-9.16,2.1C60.32,87.5,68.5,102.05,59.2,109.2Z"/><path class="cls-4" d="M62.53,57.49c-15.8-2.86-19.55-6.15-22-23.91l-.26,0c-2-.36-4.15-1.27-6-.39-4.73,2.24.44,10-2,14.62-1.1,2.07-3.56,3-5,4.88-2.52,3.21-1.26,7.94.68,11.53s4.55,7.15,4.47,11.23c-.07,3.49-2.11,6.58-3.56,9.75s-2.23,7.2-.06,9.94,6,2.88,9.13,4.29c3.85,1.74,6.47,5.34,9.74,8s8.24,4.36,11.59,1.78c9.3-7.15,1.12-21.7,15.39-25l9.16-2.1c3.17-.73,6.53-1.56,8.84-3.86,2.07-2.06,2.78-5.71,1.11-7.93C85.08,63.35,73.9,59.54,62.53,57.49Z"/><line class="cls-5" x1="50.15" y1="74.98" x2="66.15" y2="58.98"/><line class="cls-6" x1="66.15" y1="58.98" x2="76.07" y2="49.05"/><polygon class="cls-7" points="79.06 54.5 82.14 42.98 70.62 46.06 79.06 54.5"/></g></g></svg>