<svg xmlns="http://www.w3.org/2000/svg" viewBox="0 0 130.23 184.28" width='30' height='50'><defs><style>.cls-1{fill:#4d4d4d;}.cls-2{fill:#fff;}.cls-3{fill:red;}</style></defs><g id="Layer_2" data-name="Layer 2"><g id="Layer_1-2" data-name="Layer 1"><path class="cls-1" d="M65.1,184.28c-6.16-7.51-11.9-14.2-17.28-21.15-16.27-21-31.24-42.79-41.16-67.63-6-15-8.83-30.3-4.73-46.38C10.44,15.75,42.79-5,77.25,1c32.4,5.63,55.92,36.49,52.68,69.78a83.47,83.47,0,0,1-5,20.8C112,126.54,89.47,155.4,65.1,184.28Z"/><path class="cls-2" d="M65.29,6.76A58.58,58.58,0,0,0,6.48,65c-.33,32,26.08,58.68,58.25,58.93,32.33.25,59-26.2,59.06-58.62A58.58,58.58,0,0,0,65.29,6.76Z"/><path class="cls-1" d="M77,78.31H53.26A5.65,5.65,0,0,0,47.61,84V96a5.64,5.64,0,0,0,5.65,5.64H77A5.63,5.63,0,0,0,82.61,96V84A5.64,5.64,0,0,0,77,78.31ZM65.11,94.64A4.67,4.67,0,1,1,69.78,90,4.66,4.66,0,0,1,65.11,94.64Z"/><path class="cls-3" d="M65.22,29c16.57.49,30,7.38,40.61,20.07,2,2.44,1.57,4.49-1.22,6.77-2.52,2.06-3.64,2-6-.65-9-10.28-20.21-16.14-34-16-13.14.15-23.9,5.7-32.62,15.4-2.6,2.89-3.92,3.07-6.43,1.06-2.9-2.31-3.22-4.4-.79-7.22C35.4,36.08,48.78,29.41,65.22,29Z"/><path class="cls-3" d="M64.69,50A36.5,36.5,0,0,1,91.47,62c2.34,2.51,2.16,4.63-.45,7.07-2.79,2.6-3.73,2.56-6.59-.3-11.17-11.15-27.62-11.19-38.78-.09-2.93,2.91-4,3-6.84.33-2.59-2.41-2.71-4.41-.24-7.07C45.74,54.24,54.57,50.14,64.69,50Z"/></g></g></svg>