<svg xmlns="http://www.w3.org/2000/svg" viewBox="0 0 350.07 256.26"><defs><style>.cls-1{fill:#343b3f;opacity:0.16;isolation:isolate;}.cls-2,.cls-3,.cls-4,.cls-5,.cls-6,.cls-7{fill:none;stroke-miterlimit:10;stroke-width:1.06px;}.cls-2{stroke:#bbe583;}.cls-3{stroke:#d6efb1;}.cls-4{stroke:#edc28a;}.cls-5{stroke:#404040;}.cls-6{stroke:#e2f4cb;}.cls-7{stroke:#799e4d;}.cls-8{fill:#313a49;}.cls-9{fill:#8fcf4b;}.cls-10{fill:#232934;}.cls-11{fill:#1a1a1a;}.cls-12{fill:#ce907a;}.cls-13{fill:#e2ab93;}.cls-14{fill:#9da9bf;}.cls-15{fill:#cfd6e2;}.cls-16{opacity:0.3;}.cls-17{fill:#bfc8d8;}.cls-18{fill:#3e3e47;}.cls-19{fill:#a04d3a;}.cls-20{fill:#752d26;}.cls-21{fill:#4d4c56;}.cls-22{fill:#af573f;}.cls-23{fill:#87382d;}.cls-24{fill:#32323a;}.cls-25{fill:#b4bdd1;}.cls-26{fill:#723222;}.cls-27{fill:#8c4841;}.cls-28{fill:#d8e0ef;}.cls-29{opacity:0.51;}.cls-30{fill:#cfd7e5;}.cls-31{fill:#2a709b;}.cls-32{fill:#18597a;}.cls-33{fill:#7a3835;}.cls-34{fill:#844138;}.cls-35{fill:#68312b;}.cls-36{fill:#1d1d1b;}.cls-37{fill:#1c1b1a;}.cls-38{fill:#fff;}</style></defs><g id="Layer_2" data-name="Layer 2"><g id="Layer_1-2" data-name="Layer 1"><ellipse id="Ellipse_121" data-name="Ellipse 121" class="cls-1" cx="175.53" cy="245.76" rx="120.5" ry="10.5"/><g id="Group_1015" data-name="Group 1015"><line id="Line_1" data-name="Line 1" class="cls-2" x1="306.8" y1="245" x2="350.07" y2="245"/><line id="Line_2" data-name="Line 2" class="cls-2" x1="205.32" y1="245" x2="285.37" y2="245"/><line id="Line_3" data-name="Line 3" class="cls-2" x1="66.55" y1="245" x2="188.91" y2="245"/><line id="Line_4" data-name="Line 4" class="cls-2" x1="6.87" y1="245" x2="57.1" y2="245"/></g><g id="Group_1045" data-name="Group 1045"><line id="Line_11" data-name="Line 11" class="cls-3" x1="7.53" y1="61.69" x2="123.72" y2="61.69"/><line id="Line_12" data-name="Line 12" class="cls-3" x1="65.01" y1="68.81" x2="122.19" y2="68.81"/><line id="Line_13" data-name="Line 13" class="cls-3" x1="67.86" y1="178.59" x2="99.84" y2="178.59"/><line id="Line_14" data-name="Line 14" class="cls-2" x1="35.18" y1="218.37" x2="69.89" y2="218.37"/><line id="Line_15" data-name="Line 15" class="cls-2" x1="20.1" y1="218.37" x2="29.74" y2="218.37"/><line id="Line_16" data-name="Line 16" class="cls-3" x1="60.31" y1="185.72" x2="90.68" y2="185.72"/><line id="Line_17" data-name="Line 17" class="cls-3" x1="47.75" y1="185.72" x2="56.13" y2="185.72"/><line id="Line_18" data-name="Line 18" class="cls-4" x1="151.37" y1="188.34" x2="163.47" y2="188.34"/><line id="Line_19" data-name="Line 19" class="cls-4" x1="157.51" y1="195.47" x2="163.34" y2="195.17"/><line id="Line_20" data-name="Line 20" class="cls-5" x1="219.5" y1="229.5" x2="235.76" y2="229.5"/><line id="Line_21" data-name="Line 21" class="cls-5" x1="211.97" y1="236.63" x2="240.35" y2="236.63"/><line id="Line_22" data-name="Line 22" class="cls-5" x1="199.39" y1="236.63" x2="207.77" y2="236.63"/><line id="Line_23" data-name="Line 23" class="cls-3" x1="39.79" y1="68.81" x2="59.68" y2="68.81"/><line id="Line_24" data-name="Line 24" class="cls-3" x1="25.97" y1="68.81" x2="34.35" y2="68.81"/><g id="Group_1044" data-name="Group 1044"><line id="Line_25" data-name="Line 25" class="cls-5" x1="201.06" y1="153.62" x2="234.61" y2="153.62"/><line id="Line_26" data-name="Line 26" class="cls-5" x1="222.65" y1="160.75" x2="236.96" y2="160.75"/><line id="Line_27" data-name="Line 27" class="cls-5" x1="220.8" y1="160.75" x2="217.32" y2="160.75"/></g><line id="Line_28" data-name="Line 28" class="cls-3" x1="91.73" y1="89.98" x2="114.86" y2="89.98"/><line id="Line_29" data-name="Line 29" class="cls-3" x1="74.15" y1="89.98" x2="83" y2="89.98"/><line id="Line_33" data-name="Line 33" class="cls-6" x1="88.8" y1="139.77" x2="94.4" y2="139.77"/><line id="Line_34" data-name="Line 34" class="cls-6" x1="90.4" y1="134.74" x2="94.32" y2="134.74"/><line id="Line_35" data-name="Line 35" class="cls-6" x1="78.02" y1="139.77" x2="85.11" y2="139.77"/><line id="Line_36" data-name="Line 36" class="cls-7" y1="211.38" x2="66.39" y2="211.38"/><line id="Line_37" data-name="Line 37" class="cls-7" x1="35.18" y1="206.79" x2="66.69" y2="207.47"/><line id="Line_38" data-name="Line 38" class="cls-5" x1="79.7" y1="227.52" x2="41.82" y2="227.52"/><line id="Line_39" data-name="Line 39" class="cls-5" x1="81.57" y1="231.7" x2="68.06" y2="231.7"/><line id="Line_40" data-name="Line 40" class="cls-5" x1="37.91" y1="227.52" x2="34.35" y2="227.52"/></g><path class="cls-8" d="M282.85,155.33h-27.7l-9.79-25,4.43-1.8h41.27a3.7,3.7,0,0,1,3.24,1.9,3.58,3.58,0,0,1,.18,3.19l-8.2,19.47A3.7,3.7,0,0,1,282.85,155.33ZM256,153.83h26.84a2.4,2.4,0,0,0,2.23-1.4l8.2-19.46a1.93,1.93,0,0,0-.1-1.75,2.4,2.4,0,0,0-2.12-1.2H249.9l-2.76,1.15Z"/><rect class="cls-8" x="251.72" y="132.93" width="42.14" height="1.5"/><rect class="cls-8" x="251.72" y="138.44" width="39.34" height="1.48"/><rect class="cls-8" x="251.72" y="143.93" width="37.09" height="1.5"/><rect class="cls-8" x="251.72" y="149.43" width="34.85" height="1.5"/><rect class="cls-8" x="279.76" y="129.82" width="1.31" height="24.21"/><rect class="cls-8" x="270.79" y="129.27" width="1.34" height="25.31"/><rect class="cls-8" x="260.7" y="129.27" width="1.34" height="25.31"/><path class="cls-9" d="M270.24,181a26.55,26.55,0,1,0,26.54,26.54A26.54,26.54,0,0,0,270.24,181Zm0,49.87a23.33,23.33,0,1,1,23.33-23.33A23.32,23.32,0,0,1,270.24,230.89Z"/><path class="cls-9" d="M81.88,181a26.55,26.55,0,1,0,26.55,26.54A26.55,26.55,0,0,0,81.88,181Zm0,49.87a23.33,23.33,0,1,1,23.33-23.33A23.32,23.32,0,0,1,81.88,230.89Z"/><path class="cls-8" d="M140.32,210s-3.86,0-11.59-17.7-17.89-33.79-33.36-38.62L92.16,148h72.63s-3.86,38.62,0,51.49c0,6.44,14.25,6.63,14.25,6.63l-22,4.63Z"/><path class="cls-10" d="M270.24,181.05a26.19,26.19,0,1,1-26.19,26.19,26.22,26.22,0,0,1,26.19-26.19m0-9.65a35.84,35.84,0,1,0,35.83,35.84,35.83,35.83,0,0,0-35.83-35.84Z"/><path class="cls-10" d="M81.88,181.38a26.19,26.19,0,1,1-26.19,26.18,26.21,26.21,0,0,1,26.19-26.18m0-9.65a35.84,35.84,0,1,0,35.84,35.83,35.84,35.84,0,0,0-35.84-35.83Z"/><polygon class="cls-8" points="132.99 206.15 211.54 206.15 201.91 218.38 140.63 218.38 132.99 206.15"/><path class="cls-10" d="M270.06,203.54a3.77,3.77,0,1,1-3.77,3.77,3.77,3.77,0,0,1,3.77-3.77m0-9.65a13.42,13.42,0,1,0,13.43,13.42,13.42,13.42,0,0,0-13.43-13.42Z"/><path class="cls-10" d="M81.82,203.54a3.77,3.77,0,1,1-3.77,3.77,3.78,3.78,0,0,1,3.77-3.77m0-9.65a13.42,13.42,0,1,0,13.42,13.42,13.42,13.42,0,0,0-13.42-13.42Z"/><path class="cls-9" d="M289.52,181.87A10.36,10.36,0,0,1,279.8,183a26.17,26.17,0,0,0-9.56-1.8c-.84,0-1.67,0-2.49.11a5.71,5.71,0,0,0-4.95,7.28l4,13.63-12.76-7a9.38,9.38,0,0,0-13,4.18,18.76,18.76,0,0,0-1.87,7.93c0,3.66,1.95,7,1.79,10.43a13.39,13.39,0,0,1-1.26,5.62,3,3,0,0,1-5.27-.26A39.18,39.18,0,0,1,291,174a4,4,0,0,1,.19,6.68Z"/><path class="cls-9" d="M118.32,202.21a3.88,3.88,0,0,0,2.87-4.75,40.59,40.59,0,0,0-79.75,5.79,3.67,3.67,0,0,0,3.63,4.06h0A3.68,3.68,0,0,0,48.7,204a33.35,33.35,0,0,1,14.38-24.18,4.78,4.78,0,0,1,2.7-.8H66a4.94,4.94,0,0,1,4.42,2.74l1.35,2.73A4.63,4.63,0,0,0,76,187h2.41a4.64,4.64,0,0,0,4.36-3l1-2.72a3,3,0,0,1,3.37-2,28.5,28.5,0,0,1,22.51,21.49,3.26,3.26,0,0,0,3.89,2.5Z"/><path class="cls-8" d="M118.49,223.62a11.46,11.46,0,0,1-3.94-.71L80.67,210.43a3.33,3.33,0,0,1-1.7-4.84l28-41.35a3.38,3.38,0,0,1,.5-.63l20.43-20.35a3.32,3.32,0,1,1,4.69,4.71L112.41,168,86.75,205.59l30.1,11.09a4.68,4.68,0,0,0,4.09-.41l12.31-7.59a3.32,3.32,0,0,1,3.49,5.65l-12.31,7.59A11.23,11.23,0,0,1,118.49,223.62Z"/><path class="cls-9" d="M269.53,210.65a3.34,3.34,0,0,1-2.38-2.07l-28.63-76.15a3.32,3.32,0,0,1,6.22-2.34l28.63,76.15a3.32,3.32,0,0,1-3.84,4.41Z"/><path class="cls-9" d="M250.55,115.79H236.63a4,4,0,0,1-4-4h0a4,4,0,0,1,4-4h13.92a4,4,0,0,1,4,4h0A4,4,0,0,1,250.55,115.79Z"/><path class="cls-9" d="M260.87,122a3.33,3.33,0,0,1-4.32,3.19,14,14,0,0,1,0-26.7,3.33,3.33,0,0,1,4.32,3.19Z"/><path class="cls-10" d="M225.7,90.41c-5.15-11.88,1.58-26.18,1.87-26.78l1.07.51c-.07.14-6.78,14.42-1.85,25.8Z"/><path class="cls-10" d="M225.28,91.47l-.32-.74c-5.3-12.21,1.58-26.84,1.88-27.45l.35-.73,2.53,1.21-.35.73c-.07.14-6.62,14.1-1.84,25.13l.32.74Z"/><ellipse class="cls-9" cx="227.74" cy="59.12" rx="3.88" ry="9.55" transform="translate(-3.88 17.73) rotate(-4.42)"/><path class="cls-8" d="M164.56,150.45H87.33v-17.6a8.15,8.15,0,0,1,8.15-8.15h60.93a8.15,8.15,0,0,1,8.15,8.15Z"/><path class="cls-9" d="M164.56,152.06l-38.67,1.47a3.18,3.18,0,0,0-2.82,2.06L121.35,160a3.37,3.37,0,0,0,.1,2.68l19.61,35.8a3.15,3.15,0,0,0,2.83,1.81h20.67S160.79,191.76,164.56,152.06Z"/><rect class="cls-11" x="87.33" y="149.81" width="77.23" height="1.28"/><rect class="cls-9" x="243.62" y="106.82" width="10.46" height="59.77" rx="3.25" transform="matrix(0.92, -0.38, 0.38, 0.92, -33.32, 105.18)"/><path class="cls-9" d="M243.35,125.69l-15-35.17-6.69,4.34,15,35.17A25,25,0,0,1,239.22,152l-32.7,55.46a11.7,11.7,0,0,1-11,7.74h-46.9a12,12,0,0,1-11-7.16l-16.89-33.59a28,28,0,0,0-4.63-7.27l-6.23-7.1a28.22,28.22,0,0,0-21.21-9.61H62.36a4,4,0,0,0-4,4h0a4,4,0,0,0,4,4H88.67a20.28,20.28,0,0,1,15.23,6.89l6.23,7.1a20.11,20.11,0,0,1,3.32,5.22l16.89,33.59a20,20,0,0,0,18.29,11.93h46.9a19.69,19.69,0,0,0,18.5-13l32.7-55.45A33,33,0,0,0,243.35,125.69Z"/><path class="cls-10" d="M232.76,91.7a9.47,9.47,0,1,1-9.47-9.47A9.47,9.47,0,0,1,232.76,91.7Z"/><rect class="cls-9" x="58.37" y="144.01" width="8.04" height="14.48" rx="2.5"/><path id="Path_1191" data-name="Path 1191" class="cls-12" d="M208.13,74.25a60.87,60.87,0,0,1,6.9,0c3.24.33,4.85,2,5.12,5.26.2,2.5-.24,6.2-.1,8.7.18,3.07-3,4.64-4.63,4.87-1.08.16-.23,0-.24,0-.67,0-1.24,0-1.69,0a3.5,3.5,0,0,1-3.38-3.45h0l4.13-.67a3.39,3.39,0,0,0,.94-2.19h0c.22-1.8-1.84-3-2.84-3.13l-.16,0c-1.51-.08-2.78.06-4.19-.13,0-2,.12-7.71.13-9S208.12,74.25,208.13,74.25Z"/><circle class="cls-8" cx="219.79" cy="89.75" r="7.52"/><path id="Path_1233" data-name="Path 1233" class="cls-13" d="M204.84,78.25a61.1,61.1,0,0,1,6.91,0c3.24.34,4.84,2,5.12,5.26.2,2.51-.24,6.2-.1,8.71.18,3.06-3,4.63-4.63,4.87-1.08.16-.23,0-.24,0-.67,0-1.24,0-1.69,0a3.51,3.51,0,0,1-3.39-3.45h0L211,93a3.42,3.42,0,0,0,1-2.2h0c.21-1.79-1.85-3-2.85-3.12l-.15,0c-1.52-.08-2.79.06-4.21-.15.05-2,.13-7.7.14-9S204.84,78.25,204.84,78.25Z"/><g id="Group_1734" data-name="Group 1734"><path id="Path_2446" data-name="Path 2446" class="cls-14" d="M144.74,44.79A101.24,101.24,0,0,0,158.16,62c4.15,4.21,8.34,6.2,13.43,8.75C183.81,71.84,196,72.94,208.32,73c-.41,3.21-.6,6.43-1.29,9.61-14.07,1.17-30.33.84-43.87.93-6.85,0-9.66-5.25-13-7.84s-1.56-2.2-4-4.19C145.69,62.63,143.83,53.77,144.74,44.79Z"/><path id="Path_2447" data-name="Path 2447" class="cls-15" d="M206.87,72.38a7.59,7.59,0,0,1,1.51,0c.43.06.65.2.59.65-.45,3.23-1,6.51-1.54,9.74-.05.33-.21.4-.49.48a1.58,1.58,0,0,1-.81.05c-.32-.06-.56-.15-.53-.6.21-3.22.4-6.51.68-9.75C206.31,72.53,206.46,72.43,206.87,72.38Z"/><g id="Group_1726-2" data-name="Group 1726-2" class="cls-16"><path id="Path_2448" data-name="Path 2448" class="cls-17" d="M178.93,79.71h-3q1.53-4.15,3.07-8.3l2.92.27C180.9,74.34,179.92,77,178.93,79.71Z"/><path id="Path_2449" data-name="Path 2449" class="cls-17" d="M161.84,65.71c-1.13,4.5-2.17,9-3.7,13.37-1-.49-1.91-1-2.83-1.58,1.55-4.68,2.71-9.45,3.81-14.25C160,64.11,160.9,64.93,161.84,65.71Z"/><path id="Path_2450" data-name="Path 2450" class="cls-17" d="M155.58,59.24c-1.11,5.19-2.34,10.33-3.94,15.4-.87-.84-1.72-1.69-2.56-2.56,1.52-5.23,2.77-10.5,3.93-15.82C153.87,57.25,154.73,58.24,155.58,59.24Z"/><path id="Path_2451" data-name="Path 2451" class="cls-17" d="M144.18,47.5c.14-.94.33-1.86.53-2.79.15.33.31.66.47,1C144.84,46.29,144.51,46.89,144.18,47.5Z"/><path id="Path_2452" data-name="Path 2452" class="cls-17" d="M186,79.73h-3c.94-2.56,1.87-5.13,2.82-7.69,1,.1,2,.18,2.93.26C187.86,74.78,187,77.25,186,79.73Z"/><path id="Path_2453" data-name="Path 2453" class="cls-17" d="M145,58.63c.73-3.1,1.47-6.19,2.41-9.24q1.06,1.45,2.19,2.88c-1.09,5-2.25,9.92-3.53,14.84C145.76,64.28,145.41,61.45,145,58.63Z"/><path id="Path_2454" data-name="Path 2454" class="cls-17" d="M165.48,68.22c.91.48,1.84.94,2.77,1.38-1.13,3.4-2.16,6.85-3.39,10.22-1,0-2,.06-3,.11C163.25,76.08,164.35,72.16,165.48,68.22Z"/><path id="Path_2455" data-name="Path 2455" class="cls-17" d="M193.22,79.68l-3.08,0c.87-2.37,1.72-4.75,2.58-7.12l2.95.2C194.86,75.09,194,77.38,193.22,79.68Z"/><path id="Path_2456" data-name="Path 2456" class="cls-17" d="M200.41,79.44c-1,.06-2,.09-3.07.13.78-2.2,1.56-4.4,2.31-6.6,1,0,2,0,2.93,0Q201.5,76.23,200.41,79.44Z"/><path id="Path_2457" data-name="Path 2457" class="cls-17" d="M172.07,70.72c1,.08,2,.18,3,.28-1,2.9-2.1,5.8-3.16,8.7-1,0-2,0-3,0C170,76.73,171,73.72,172.07,70.72Z"/></g><path id="Path_2458" data-name="Path 2458" class="cls-18" d="M171,121c.54,25-.47,49.9-.84,74.85,3.73.12,7.46.24,11.19.33,1.62-25.17,3.83-50.28,5.73-75.42C181.67,120.83,176.31,120.93,171,121Z"/><g id="Group_1727" data-name="Group 1727"><path id="Path_2459" data-name="Path 2459" class="cls-19" d="M170.15,195.87a7.46,7.46,0,0,0-.58,1.07,29.12,29.12,0,0,0-1.94,8.06,4.14,4.14,0,0,0,0,.93c.16.95.39,2.06,1.54,2.11,8.55.31,17.13.78,25.66.28,2.49-.14,2.31-2.73,1.59-4.5a3.38,3.38,0,0,0-.75-1.19c-3.59-3.31-6.32-5.67-11.46-6.29C179.82,195.81,174.67,196.19,170.15,195.87Z"/><path id="Path_2460" data-name="Path 2460" class="cls-20" d="M167.67,204.24c0,.27,0,.49,0,.77a7.06,7.06,0,0,0,0,.92c.17.95.39,2,1.54,2.1,8.53.38,17.13.67,25.65.4,2.07-.07,2-2,2.13-3.54C187.17,204.68,177.42,204.59,167.67,204.24Z"/></g><path id="Path_2461" data-name="Path 2461" class="cls-21" d="M177.57,120.89c.07,25.09-1,50.16-1.36,75.25q5.63.17,11.25.2c1.52-25.18,4.08-50.27,5.69-75.44C188,120.83,182.77,120.84,177.57,120.89Z"/><g id="Group_1728" data-name="Group 1728"><path id="Path_2462" data-name="Path 2462" class="cls-22" d="M176.26,196.12a8.51,8.51,0,0,0-.57,1.07,29.38,29.38,0,0,0-1.92,8.05,3.54,3.54,0,0,0,0,.92c.15,1,.39,2.06,1.54,2.09,8.55.23,17.14.66,25.67.14,2.49-.15,2.31-2.73,1.59-4.51a3.38,3.38,0,0,0-.75-1.19c-3.57-3.34-6.27-5.75-11.44-6.29C186,196,180.81,196.45,176.26,196.12Z"/><path id="Path_2463" data-name="Path 2463" class="cls-23" d="M173.81,204.47c0,.27,0,.49,0,.77a5.65,5.65,0,0,0,0,.92c.16,1,.39,2.05,1.54,2.09,8.54.3,17.14.53,25.65.25,2.07-.07,2-2,2.13-3.55C193.32,204.77,183.57,204.76,173.81,204.47Z"/></g><path id="Path_2464" data-name="Path 2464" class="cls-21" d="M183.31,110.54c-19.85-2-41.37-2.43-61.62-4.2.16,5.62-.65,11.82.2,17.27.66,4.21,1.85,6.21,6.4,6.3,17.45.37,36.5-.19,53.7-.76,6.7-.22,9.7-2.62,10.15-8.77S190.15,111.24,183.31,110.54Z"/><path id="Path_2465" data-name="Path 2465" class="cls-24" d="M150.11,130c10.27-1.54,20.67-3.41,30.92-4.61,1.4-.16,2,.19,1.93,1.66-1.12,23-3,46.09-4.13,69.13-.88,0-1.74,0-2.61-.05.31-22.23,1.42-44.45,1.46-66.69C168.49,129.53,159.3,129.86,150.11,130Z"/><path id="Path_2466" data-name="Path 2466" class="cls-22" d="M149.09,106.74l0,1.89c-9.17.87-18.34,1.66-27.52,2.46,0-1.07,0-2.14,0-3.21C130.76,107.5,139.92,107.16,149.09,106.74Z"/><g id="Group_1729" data-name="Group 1729"><path id="Path_2467" data-name="Path 2467" class="cls-13" d="M143.28,26.61a14.17,14.17,0,0,1-4.73-1.34c-2.37,7.33-4.68,14.66-7.17,22a114.18,114.18,0,0,0,14.33,3c.27-3,2.61-7.89,3.51-10.1s.27-1.34,1.61-1.88c.06,0,.09.06.1,0a10.48,10.48,0,0,1,1-3.24l.12-.2A26.85,26.85,0,0,1,143.28,26.61Z"/></g><path id="Path_2468" data-name="Path 2468" class="cls-25" d="M135.23,38c4.19,2.05,8.32,4.13,12.63,5.88a40.94,40.94,0,0,0,2.54,9.67c.83,10.35.86,21.87-1.69,31.52-1.37,5.18-.87,7-.87,11.81.68,2.32,1.85,4.81,2.3,7.23.32,1.7-.2,2.55-2.06,2.72-8.29.75-17,1.3-25.34,1.64-1.77.08-2.55-.75-2.54-2.44.06-12.48.26-26.55,1.2-38.61s4.9-18.74,11.78-28C133.61,38.84,134.72,38.56,135.23,38Z"/><path id="Path_2469" data-name="Path 2469" class="cls-14" d="M149.24,56.27c.5.59.93,1.2,1.4,1.8a118.63,118.63,0,0,1-1.12,25.51c-1.84-3.19-1.94-2.68-4.31-6.67s-7.81-11.68-10.36-16.77c-1-2-.5-3.74,2.07-3.88C140.79,56,145.25,56.29,149.24,56.27Z"/><path id="Path_2470" data-name="Path 2470" class="cls-26" d="M188.21,195.07a.79.79,0,0,1,.8.76,5.9,5.9,0,0,1,0,1.26.81.81,0,0,1-.82.75.79.79,0,0,1-.8-.76,6,6,0,0,1,0-1.27A.8.8,0,0,1,188.21,195.07Z"/><path id="Path_2471" data-name="Path 2471" class="cls-26" d="M190.82,195.08a.78.78,0,0,1,.8.76,4.91,4.91,0,0,1,0,1.27.81.81,0,0,1-1.62,0,5.31,5.31,0,0,1,0-1.26A.8.8,0,0,1,190.82,195.08Z"/><path id="Path_2472" data-name="Path 2472" class="cls-25" d="M159.08,63.86c-6.09-5.41-9.12-12-13.61-18.54-5,.29-10.16.23-15.1.91,3.89,8.76,11,19.88,16,27S154.51,81,160.5,85.67c14.84-.1,29.79,1.39,44.7,1.15.46-3.16,1.36-6.23,1.24-9.45-9.76-.72-24.17-2.08-32.65-4.19S164.37,68.56,159.08,63.86Z"/><path id="Path_2473" data-name="Path 2473" class="cls-25" d="M159.08,63.86c-6.09-5.41-9.12-12-13.61-18.54-5,.29-10.16.23-15.1.91,3.89,8.76,11,19.88,16,27S154.51,81,160.5,85.67c14.84-.1,29.79,1.39,44.7,1.15.46-3.16,1.36-6.23,1.24-9.45-9.76-.72-24.17-2.08-32.65-4.19S164.37,68.56,159.08,63.86Z"/><path id="Path_2474" data-name="Path 2474" class="cls-27" d="M148.59,48.31c.15.22.42.45.56.66a6.14,6.14,0,0,1,1.07,3.17,6.77,6.77,0,0,1,0,.69c0,.16,0,.08,0,.2q-1.22-1.72-2.37-3.48C148.05,49.13,148.31,48.72,148.59,48.31Z"/><path id="Path_2475" data-name="Path 2475" class="cls-28" d="M205.5,76.68a7,7,0,0,1,1.51,0c.42.07.63.22.53.67-.67,3.2-1.43,6.43-2.18,9.61-.08.32-.24.39-.53.43a1.63,1.63,0,0,1-.82,0c-.31-.09-.56-.2-.49-.63.44-3.18.84-6.44,1.35-9.63C204.93,76.79,205.09,76.7,205.5,76.68Z"/><g id="Group_1730" data-name="Group 1730" class="cls-29"><path id="Path_2476" data-name="Path 2476" class="cls-17" d="M173,73.31l2.87.42q-2.19,6-4.41,12l-2.93-.13C170,81.47,171.48,77.39,173,73.31Z"/><path id="Path_2477" data-name="Path 2477" class="cls-17" d="M157.8,84.68a28.73,28.73,0,0,1-2.73-1.61,123.47,123.47,0,0,0,5.33-16.92c.84.83,1.69,1.64,2.57,2.43A166.57,166.57,0,0,1,157.8,84.68Z"/><path id="Path_2478" data-name="Path 2478" class="cls-17" d="M179.69,74.32c1,.13,1.91.28,2.86.42-1.38,3.78-2.78,7.54-4.18,11.31l-3-.17C176.83,82,178.27,78.17,179.69,74.32Z"/><path id="Path_2479" data-name="Path 2479" class="cls-17" d="M145.7,43c.71.29,1.44.54,2.15.83.06,0,0,.13,0,.18-10.34,20.49-16.34,42.76-23.63,64.42-.52,0-1.15.1-1.64.1a3.9,3.9,0,0,1-1.24-.24C128.67,86.34,134.27,63.36,145.7,43Z"/><path id="Path_2480" data-name="Path 2480" class="cls-17" d="M193.23,76.22l2.9.35q-1.81,5.12-3.68,10.22l-3-.13C190.7,83.18,192,79.71,193.23,76.22Z"/><path id="Path_2481" data-name="Path 2481" class="cls-17" d="M186.43,75.32l2.88.4q-2,5.37-3.94,10.73l-3-.17C183.75,82.63,185.09,79,186.43,75.32Z"/><path id="Path_2482" data-name="Path 2482" class="cls-17" d="M199.55,87c-1,0-2,0-3,0,1.2-3.31,2.39-6.62,3.53-10l2.89.19Q201.28,82.07,199.55,87Z"/><path id="Path_2483" data-name="Path 2483" class="cls-17" d="M166.52,71c.87.47,1.74.91,2.64,1.32-1.43,4.41-3,8.76-4.64,13.11l-3-.06C163.32,80.66,165,75.88,166.52,71Z"/><path id="Path_2484" data-name="Path 2484" class="cls-17" d="M150.38,104.34a2.88,2.88,0,0,1-.69,2C149.93,105.69,150.15,105,150.38,104.34Z"/><path id="Path_2485" data-name="Path 2485" class="cls-17" d="M133.88,39l1.39-1,1.92.93C130.05,52.42,126,67,120.51,81.23c.16-2.8.31-5.61.46-8.41C125.15,61.45,128.68,49.91,133.88,39Z"/><path id="Path_2486" data-name="Path 2486" class="cls-17" d="M140.47,40.57l2.25,1.16c-10.52,18.49-16,39.09-22.66,59.15,0-2.79,0-5.57.08-8.36C126.29,74.89,131.28,56.93,140.47,40.57Z"/><path id="Path_2487" data-name="Path 2487" class="cls-17" d="M147.46,94.39c.11.77.25,1.58.43,2.31s.4,1.38.61,2.09c-1.08,2.75-2.12,5.53-3.1,8.32-1,.08-2.05.15-3.07.21C144,103,145.64,98.66,147.46,94.39Z"/><path id="Path_2488" data-name="Path 2488" class="cls-17" d="M154.41,58.62l2.53,3.28a103.44,103.44,0,0,1-5.45,18.16c-.39-.58-.9-.78-1-1.61-1.33,3.53-.79,4-2.88,8a187.14,187.14,0,0,0-9.25,20.76,9.54,9.54,0,0,1-3.15.55C141.63,91.29,149.9,75.78,154.41,58.62Z"/><path id="Path_2489" data-name="Path 2489" class="cls-17" d="M150.27,53.17l.81,1.09C146.27,72.87,138,90.07,131.26,108l-3,.19C135.2,89.15,143.33,70.6,148.76,51,149.19,51.67,149.88,52.63,150.27,53.17Z"/></g><path id="Path_2490" data-name="Path 2490" class="cls-30" d="M152.27,49.07c.55,1,.15.27.38.7-7.24-2.7-14.3-5.61-21.31-8.83.61-.5,1.13-.95,1.79-1.44s1.44-1,2.13-1.53c4.9,2.41,9.78,4.71,14.87,6.75C150.65,46,151.73,48.06,152.27,49.07Z"/><path id="Path_2491" data-name="Path 2491" class="cls-31" d="M150.3,79.11a21,21,0,0,1-.92,4.14h0a94.15,94.15,0,0,1-10.94,10.47,4.71,4.71,0,0,1-1.11.72,4,4,0,0,1-2.6.4c-1.1-.19-2.68-.55-3.84-.88a.78.78,0,0,1-.65-1,29.77,29.77,0,0,1,.84-3.89,3.58,3.58,0,0,1,2-2.25,15,15,0,0,1,1.48-.57A63.2,63.2,0,0,0,146,79.47c.88-.65,1.94-1.77,2.84-2.5C149.35,77.66,149.81,78.4,150.3,79.11Z"/><g id="Group_1731" data-name="Group 1731"><path id="Path_2492" data-name="Path 2492" class="cls-32" d="M140.26,83.62c1-.59,1.92-1.21,2.86-1.85a60.53,60.53,0,0,1-2.72,10.59c-.67.48-1.25.91-2,1.39l-1,.67A87.57,87.57,0,0,0,140.26,83.62Z"/><path id="Path_2493" data-name="Path 2493" class="cls-32" d="M145.47,79.94c.16-.14.27-.21.43-.36l2.18-1.94a26,26,0,0,1-.38,7.62c-1,1.18-2.09,2.36-3.18,3.5A39.71,39.71,0,0,0,145.47,79.94Z"/><path id="Path_2494" data-name="Path 2494" class="cls-32" d="M134.26,86.39l.3-.12c.9-.34,1.77-.71,2.64-1.08a83,83,0,0,1-3.59,9.42l-2.12-.48C132.54,91.59,133.45,89,134.26,86.39Z"/></g><path id="Path_2495" data-name="Path 2495" class="cls-27" d="M139.42,62.87c.91,1.38,1.8,2.76,2.72,4.12a92.93,92.93,0,0,1-21.76,16.62c.09-1.66.17-3.33.26-5A87.23,87.23,0,0,0,139.42,62.87Z"/><path id="Path_2496" data-name="Path 2496" class="cls-33" d="M139.42,62.87c.91,1.38,1.8,2.76,2.72,4.12-.6.74-1.21,1.48-1.83,2.2q-1.34-2.06-2.66-4.12C138.25,64.35,138.84,63.62,139.42,62.87Z"/><path id="Path_2497" data-name="Path 2497" class="cls-24" d="M121.75,123.79c-.61-2.22.12-5.11-.19-7.45a2.42,2.42,0,0,1,.78-.27c.55,1.37.61,3.32,1.28,4.56,2.21,4.08,4.07,6.22,8.64,7.72,2.88.94,6.82,1,9.86,1.83-4.42-.27-9.63.48-13.91-.14S122.82,127.72,121.75,123.79Z"/><path id="Path_2498" data-name="Path 2498" class="cls-34" d="M112.69,75.15a52.42,52.42,0,0,1,8.31.14c1.29.12,2,.54,1.91,1.92-.48,14.41-.5,29-.67,43.39,0,1.38-.65,1.81-1.94,1.9a51.64,51.64,0,0,1-8.06-.08c-1.28-.11-1.91-.54-1.91-1.92-.1-14.44,0-29,.38-43.47C110.75,75.65,111.39,75.23,112.69,75.15Z"/><path id="Path_2499" data-name="Path 2499" class="cls-35" d="M109.51,80.93a15.07,15.07,0,0,1,.1-4c.24-1.21.63-1.82,2-1.87,3.38-.11,7.14,0,10.52.17,1.36.08,1.77.68,1.94,1.91a13.69,13.69,0,0,1-.16,3.95c-.2,1.17-.64,1.6-1.79,1.63-3.64.08-7.42.06-11.05-.15C109.92,82.54,109.61,82.08,109.51,80.93Z"/><path id="Path_2500" data-name="Path 2500" class="cls-35" d="M110.47,82.65c-.11,6.48-.2,12.93-.25,19.41-1-.56-1.78-.7-1.8-2.06-.09-5,0-10.29.19-15.31C108.66,83.33,109.47,83.19,110.47,82.65Z"/><path id="Path_2501" data-name="Path 2501" class="cls-35" d="M110.22,105.27c0,4.94,0,9.86,0,14.81-1-.54-1.78-.73-1.82-2.07-.11-3.48-.1-7.23,0-10.71C108.44,106,109.22,105.8,110.22,105.27Z"/><path id="Path_2502" data-name="Path 2502" class="cls-12" d="M147,33c.2.45.34,1,.55,1.46a8.05,8.05,0,0,0,3.19,3.4,11.21,11.21,0,0,0,1,.44c-.36-.08-.35-.26-.8-.3a1.21,1.21,0,0,0-1.17.78,32.33,32.33,0,0,1-1.55,3.19h0A12.71,12.71,0,0,1,147,33Z"/><g id="Group_1733" data-name="Group 1733"><path id="Path_2503" data-name="Path 2503" class="cls-13" d="M142.08,29.69c1.83,4.7,3.87,4.5,5.7,6.68s9.34,5.1,10.16,4.49c3.59-2.65,3.33-6.57,5.23-9.87,1,.3,2.28.68,3.38,1,.06-3.58-.17-7.35-.25-10.81-.39-4.31,2.66-5.13-.4-10.27s-17.67-9.32-23.39-3.84S140.24,25,142.08,29.69Z"/><path id="Path_2504" data-name="Path 2504" class="cls-36" d="M150.61,26.85c.07-2.51-1.1-4.54,1-6.84s4.29-2.73,5.68-6.61,6.61,2.18,10,1.47,4.08-9,.62-11.4a6.47,6.47,0,0,1,.55,4.41c.22-3.54-2.82-5.71-5.48-7.34a9.73,9.73,0,0,1,1.38,5A10.32,10.32,0,0,0,156.32,0a11.23,11.23,0,0,1,2.93,2.67C153.86.6,150.91,1,144.44,2.47s-7.17,11.78-5.73,16.43.06,4-1.49,6.26c1,.63,3.05,2.27,4.27.89s1.66-3.35,2.42-5.06c.79.25,2.57-.78,3.15.32s-.22,3.81-.24,5.19C148.05,26.66,149.42,26.71,150.61,26.85Z"/><path id="Path_2505" data-name="Path 2505" class="cls-13" d="M147.79,18.09c.61,1.64.26,3.7-1.52,4.35s-3.38-.68-4-2.32-.26-3.7,1.52-4.36S147.19,16.45,147.79,18.09Z"/><g id="Group_1732" data-name="Group 1732"><path id="Path_2506" data-name="Path 2506" class="cls-37" d="M162.45,22.71A1.34,1.34,0,0,1,161,24a1.39,1.39,0,0,1-1.28-1.48c0-.8,1-1.27,1.4-1.28h.08A1.39,1.39,0,0,1,162.45,22.71Z"/><path id="Path_2507" data-name="Path 2507" class="cls-38" d="M161.59,22.28a.47.47,0,0,1-.51.44.46.46,0,0,1-.44-.51.49.49,0,0,1,.51-.44c.28,0,.44.35.44.47S161.59,22.28,161.59,22.28Z"/></g><path id="Path_2508" data-name="Path 2508" class="cls-36" d="M163.6,19.54c.36.29-.48.53-.59.54s0,0,0,0c-1.33-.1-2.73-.23-4-.31a.62.62,0,0,1-.55-.6c0-.13,0,0,0,0h0c0-.35.39-.53.59-.54h0c1.31.11,2.77.21,4,.32.39,0,.37.53.52.61S163.6,19.54,163.6,19.54Z"/><path id="Path_2509" data-name="Path 2509" class="cls-38" d="M157.38,32.07a15.87,15.87,0,0,0,4.76,2c-.21.56-.44,1.1-.68,1.65A9.33,9.33,0,0,1,157.38,32.07Z"/></g></g><path class="cls-8" d="M215,90.41a4.81,4.81,0,1,1-4.8-4.8A4.8,4.8,0,0,1,215,90.41Z"/></g></g></svg>