<svg xmlns="http://www.w3.org/2000/svg" viewBox="0 0 130.23 184.28" width='30' height='50'><defs><style>.cls-1{fill:#4d4d4d;}.cls-2{fill:#fff;}.cls-3{fill:#0071bc;}</style></defs><g id="Layer_2" data-name="Layer 2"><g id="Layer_1-2" data-name="Layer 1"><path class="cls-1" d="M65.1,184.28c-6.16-7.51-11.9-14.2-17.28-21.15-16.27-21-31.24-42.79-41.16-67.63-6-15-8.83-30.3-4.73-46.38C10.44,15.75,42.79-5,77.25,1c32.4,5.63,55.92,36.49,52.68,69.78a83.47,83.47,0,0,1-5,20.8C112,126.54,89.47,155.4,65.1,184.28Z"/><path class="cls-2" d="M65.29,6.76A58.58,58.58,0,0,0,6.48,65c-.33,32,26.08,58.68,58.25,58.93,32.33.25,59-26.2,59.06-58.62A58.58,58.58,0,0,0,65.29,6.76Z"/><path class="cls-3" d="M30.23,37.21c2.88,2.89,5.8,5.74,8.61,8.7a2.63,2.63,0,0,0,3.39.71,14,14,0,0,0,7.53-7.74A2.36,2.36,0,0,0,49.1,36c-2.57-2.49-5.07-5-7.59-7.57-.44-.44-.85-.91-1.42-1.54a14.82,14.82,0,0,1,12.35,1,15.11,15.11,0,0,1,8.46,14,12.44,12.44,0,0,0,4,9.47C76.29,62.55,87.53,73.88,98.81,85.15c1.58,1.57,2.83,3.25,2.9,5.62A7.33,7.33,0,0,1,97.45,98a7.45,7.45,0,0,1-8.34-1.46c-2.29-2.21-4.46-4.55-6.72-6.8Q67.75,75.19,53.09,60.61a9.26,9.26,0,0,0-6.92-2.74c-9.27.13-15.72-5.25-17-14.4-.27-2,.19-4.1.31-6.16Zm67,53.49A3.34,3.34,0,0,0,94,87.56a3.26,3.26,0,0,0-3.18,3.35A3.32,3.32,0,0,0,94,94.07,3.38,3.38,0,0,0,97.18,90.7Z"/><path class="cls-3" d="M44.07,103.92c-4.56-.44-10.55-5.84-10.69-10.1a5.71,5.71,0,0,1,1.4-3.59c4.74-5.42,9.45-10.89,14.54-16,2.29-2.28,5.42-3.74,8.22-5.48.29-.18,1.09.1,1.42.42,2.29,2.21,4.58,4.43,6.73,6.78a2.31,2.31,0,0,1,.18,2.1,44.14,44.14,0,0,1-6.79,10.56c-3.94,4.24-7.57,8.79-11.46,13.08C46.72,102.71,45.27,103.2,44.07,103.92Z"/><path class="cls-3" d="M101.7,35.12c-1.44,2.07-2.76,4-4.15,5.93-.27.36-.83.81-1.18.75-1.68-.26-2.57.84-3.54,1.84L78.82,58c-.7.73-1.36,1.51-2.21,2.46L73.71,57c1.83-1.86,3.81-3.91,5.83-5.92,3.75-3.73,7.55-7.41,11.25-11.19.52-.53.52-1.53.83-2.28a3.23,3.23,0,0,1,.87-1.42c1.43-.95,3-1.66,4.42-2.67s2.69-1.08,3.8.48C101,34.35,101.29,34.66,101.7,35.12Z"/></g></g></svg>