<svg xmlns="http://www.w3.org/2000/svg" width="23.358" height="18.316" viewBox="0 0 23.358 18.316"><defs><style>.a{fill:#8fcf4b;}.b{fill:none;stroke:#8fcf4b;}</style></defs><g transform="translate(-0.001 -0.122)"><g transform="translate(0.001 5.999)"><path class="a" d="M71.416,97.007c.137,0,.274,0,.411,0a.214.214,0,0,1,.219.127c.176.331.369.654.535.991a1.252,1.252,0,0,0,1.037.7,1.726,1.726,0,0,0,.966-.143.819.819,0,0,0,.532-.777.934.934,0,0,0-.138-.4l-.307-.543c-.046-.082-.04-.143.072-.132a2.831,2.831,0,0,0,1.541-.387c.045-.022.09-.046.135-.071.072-.039.12-.029.152.056a15.3,15.3,0,0,0,1.276,2.556,22.981,22.981,0,0,0,1.342,2.012c.136.182.135.181-.04.32-.151.12-.305.236-.447.365-.085.078-.14.071-.216-.006a1.846,1.846,0,0,0-.889-.5,1.014,1.014,0,0,0-1.2,1.12c.006.044.028.1-.015.128s-.074-.015-.109-.034a1.057,1.057,0,0,0-1.507.683c-.041.167-.044.168-.174.068a.953.953,0,0,0-1.045-.112,1.062,1.062,0,0,0-.639.881c-.011.085.067.185-.005.245s-.165-.015-.25-.009a.915.915,0,0,0-.841,1.32,4.827,4.827,0,0,0,.27.459c.058.092.044.145-.048.194a2.193,2.193,0,0,0-.22.136.782.782,0,0,1-1.19-.525.724.724,0,0,1,.215-.652q.392-.445.78-.894a.2.2,0,0,0,.068-.2.181.181,0,0,0-.326-.051c-.194.208-.378.424-.564.638-.293.337-.581.678-.879,1.01a.68.68,0,0,1-.916.072.78.78,0,0,1-.2-1.3c.047-.053.092-.108.139-.162l1.121-1.284a1.127,1.127,0,0,0,.073-.1.157.157,0,0,0-.023-.231.163.163,0,0,0-.244.019c-.117.126-.231.256-.344.386l-1.276,1.469a.569.569,0,0,1-.559.2,1.011,1.011,0,0,1-.808-.7.565.565,0,0,1,.123-.582c.384-.446.772-.888,1.158-1.332.306-.351.614-.7.919-1.056a.24.24,0,0,0,.088-.2.16.16,0,0,0-.119-.126.193.193,0,0,0-.2.076q-.239.266-.474.535l-1.619,1.858c-.073.084-.143.171-.221.251a.656.656,0,0,1-.852.16,1.039,1.039,0,0,1-.5-.5.652.652,0,0,1,.132-.771q.513-.582,1.019-1.17c.451-.522.905-1.04,1.355-1.562.367-.426.736-.851,1.114-1.268a2.481,2.481,0,0,1,.674-.463c.391-.215.784-.427,1.165-.659A.932.932,0,0,1,71.218,97c.065.005.132,0,.2,0C71.416,97.005,71.416,97.006,71.416,97.007Z" transform="translate(-59.43 -93.947)"/><path class="a" d="M57.886,83.027a1.134,1.134,0,0,1-1.2-.617c-.163-.343-.363-.668-.54-1a.247.247,0,0,0-.25-.153c-.4.006-.8,0-1.2,0a.463.463,0,0,0-.228.076c-.527.293-1.055.585-1.58.881a2.892,2.892,0,0,0-.711.679c-.515.587-1.025,1.178-1.537,1.766-.546.626-1.1,1.251-1.639,1.88a.157.157,0,0,1-.241.043c-.394-.239-.793-.473-1.191-.7-.1-.058-.124-.106-.047-.211a16.813,16.813,0,0,0,1.874-3.281c.152-.349.287-.7.421-1.06.036-.1.076-.127.178-.1a2.228,2.228,0,0,0,1.652-.283c.7-.37,1.313-.862,1.97-1.293a1.648,1.648,0,0,1,.985-.3c.719.023,1.439.024,2.158.035a.678.678,0,0,1,.629.38q.634,1.2,1.269,2.391a.483.483,0,0,1-.154.646A1.078,1.078,0,0,1,57.886,83.027Z" transform="translate(-43.334 -78.431)"/><path class="a" d="M6.385,73.91c-.028.082-.059.178-.094.273a21.753,21.753,0,0,1-1,2.369A12.175,12.175,0,0,1,3.51,79.226c-.133.147-.268.291-.4.44a.165.165,0,0,1-.214.048Q1.513,79.14.126,78.575c-.126-.051-.156-.107-.092-.238.517-1.056,1.027-2.117,1.541-3.174.5-1.026,1-2.05,1.5-3.078.066-.137.12-.148.247-.072.9.538,1.795,1.069,2.694,1.6.1.059.2.115.3.174A.106.106,0,0,1,6.385,73.91Z" transform="translate(-0.001 -71.691)"/><path class="a" d="M203.651,75.126c-.014.09-.091.1-.147.119q-.971.4-1.944.791c-.164.067-.331.129-.491.2a.208.208,0,0,1-.287-.068,18.616,18.616,0,0,1-2.642-4.016c-.2-.426-.4-.851-.59-1.283a.188.188,0,0,1,.089-.283c.919-.566,1.833-1.14,2.749-1.712.17-.106.175-.109.262.07q.576,1.175,1.145,2.351l1.5,3.078c.1.209.207.417.309.626C203.618,75.046,203.635,75.088,203.651,75.126Z" transform="translate(-180.293 -68.807)"/><path class="a" d="M158.158,175.721a.733.733,0,0,1,.472-.682.687.687,0,0,1,.786.143c.324.335.641.677.954,1.021a.573.573,0,0,1,.111.611.981.981,0,0,1-.5.563.638.638,0,0,1-.832-.176c-.276-.337-.545-.679-.819-1.019A.692.692,0,0,1,158.158,175.721Z" transform="translate(-144.365 -165.715)"/><path class="a" d="M180.281,169.522a.67.67,0,0,1-.5-.22c-.194-.194-.385-.39-.577-.584a.707.707,0,0,1-.058-1,.741.741,0,0,1,1.05-.11c.228.177.45.362.675.543a.607.607,0,0,1,.224.623A.938.938,0,0,1,180.281,169.522Z" transform="translate(-163.359 -158.839)"/><path class="a" d="M199.558,155.641a.882.882,0,0,1-1,.844.6.6,0,0,1-.275-.153,3.785,3.785,0,0,1-.374-.419.732.732,0,0,1,.023-.985.747.747,0,0,1,.918-.134,2.668,2.668,0,0,1,.516.372A.6.6,0,0,1,199.558,155.641Z" transform="translate(-180.482 -147.205)"/><path class="a" d="M145.176,191.056a.474.474,0,0,1-.436-.244c-.137-.219-.281-.433-.413-.655a.608.608,0,0,1,.154-.826.643.643,0,0,1,.877.087c.167.2.326.4.485.6a.514.514,0,0,1,.039.6A.821.821,0,0,1,145.176,191.056Z" transform="translate(-131.651 -178.7)"/></g><path class="b" d="M44.7,5.058c.219.186.546.333.629.567a.479.479,0,0,1,.024.165H47.7a3.641,3.641,0,0,1,6.606,0h2.412c-.168-.288-.314-.738-.229-.857a1.289,1.289,0,0,1,.12-.123c.245-.258.5-.508.729-.778a.317.317,0,0,0,.033-.287c-.155-.276-.343-.532-.51-.8-.083-.135-.178-.141-.315-.088-.349.135-.7.277-1.056.38-.45.13-.526-.39-.832-.526-.058-.026-.094-.192-.076-.282.075-.376.183-.746.255-1.123a.314.314,0,0,0-.111-.265,6.963,6.963,0,0,0-.847-.428A.324.324,0,0,0,53.6.674a3.4,3.4,0,0,0-.546.631c-.218.36-.478.384-.863.3a.726.726,0,0,1-.637-.621C51.287-.074,51.269-.07,50.2.055c-.019,0-.044,0-.057.008-.081.073-.21.136-.231.225-.089.373-.136.756-.221,1.13a.411.411,0,0,1-.193.226.944.944,0,0,1-1.424-.32.109.109,0,0,0-.021-.02c-.484-.457-.484-.457-1.044-.072s-.6.4-.3,1.015a.978.978,0,0,1-.248,1.379.415.415,0,0,1-.425.118c-.4-.111-.814-.2-1.219-.3-.116.217-.215.4-.316.588C44.182,4.617,44.182,4.618,44.7,5.058Z" transform="translate(-39.098 0.584)"/></g></svg>