<svg xmlns="http://www.w3.org/2000/svg" viewBox="0 0 130.23 184.28" width='30' height='50'><defs><style>.cls-1{fill:#4d4d4d;}.cls-2{fill:#fff;}.cls-3{fill:red;}</style></defs><title>Problem_High</title><g id="Layer_2" data-name="Layer 2"><g id="Layer_1-2" data-name="Layer 1"><path class="cls-1" d="M65.1,184.28c-6.16-7.51-11.9-14.2-17.28-21.15-16.27-21-31.24-42.79-41.16-67.63-6-15-8.83-30.3-4.73-46.38C10.44,15.75,42.79-5,77.25,1c32.4,5.63,55.92,36.49,52.68,69.78a83.47,83.47,0,0,1-5,20.8C112,126.54,89.47,155.4,65.1,184.28Z"/><path class="cls-2" d="M65.29,6.76A58.58,58.58,0,0,0,6.48,65c-.33,32,26.08,58.68,58.25,58.93,32.33.25,59-26.2,59.06-58.62A58.58,58.58,0,0,0,65.29,6.76Z"/><path class="cls-3" d="M65.06,96.09H31.33a8,8,0,0,1-7.18-12.42L57.94,25.15a8.05,8.05,0,0,1,14.36,0q16.88,29.22,33.76,58.42a8.1,8.1,0,0,1-2.35,11.21,7.69,7.69,0,0,1-.92.52,9.42,9.42,0,0,1-3.65.78C87.77,96.12,76.42,96.09,65.06,96.09Z"/><path id="Path_2436" data-name="Path 2436" class="cls-2" d="M61.05,55.59c-.18-3.61-.37-7.21-.52-10.82a3.41,3.41,0,0,1,2.83-3.93,3.16,3.16,0,0,1,1,0h1.85A3.34,3.34,0,0,1,69.68,44a2.54,2.54,0,0,1,0,.39c-.17,4.16-.4,8.33-.62,12.48-.15,3-.31,6-.46,9,0,.5,0,1-.1,1.5a3.45,3.45,0,0,1-6.89-.23c-.2-3.85-.37-7.73-.56-11.59Z"/><path id="Path_2437" data-name="Path 2437" class="cls-2" d="M65,85.58a4.92,4.92,0,1,1,0-9.83h.19a4.92,4.92,0,1,1,0,9.83Z"/></g></g></svg>