<svg xmlns="http://www.w3.org/2000/svg" xmlns:xlink="http://www.w3.org/1999/xlink" width="299.412" height="136.172" viewBox="0 0 299.412 136.172"><defs><style>.a{fill:#5ab1dc;}.b{fill:url(#a);}.c{fill:url(#b);}.d{fill:url(#c);}.e{fill:url(#d);}.f{fill:#3dbeff;}.g{fill:url(#e);}.h{fill:url(#f);}.i{fill:url(#g);}.j{fill:url(#h);}.k{fill:url(#i);}.l{fill:url(#j);}.m{fill:url(#k);}.n{fill:url(#l);}.o{fill:url(#m);}.p{fill:url(#n);}.q{fill:url(#o);}.r{fill:url(#p);}.s{fill:url(#q);}.t{fill:url(#r);}.u{fill:url(#s);}.v{clip-path:url(#t);}.w{fill:#2b9d29;}.x{fill:#2b9e2a;}.y{fill:#2b9f2b;}.z{fill:#2b9c27;}.aa{fill:#2b9d28;}.ab{fill:#2ba02c;}.ac{fill:#2ba02d;}.ad{fill:#2ca12e;}.ae{fill:#2ca22f;}.af{fill:#2ca230;}.ag{fill:#2ca331;}.ah{fill:#2ca432;}.ai{fill:#2ca433;}.aj{fill:#2ca534;}.ak{fill:#2ca635;}.al{fill:#2ca736;}.am{fill:#2ca737;}.an{fill:#2ca838;}.ao{fill:#2ca939;}.ap{fill:#2da93b;}.aq{fill:#2daa3c;}.ar{fill:#2dab3d;}.as{fill:#2dab3e;}.at{fill:#2dac3f;}.au{fill:#2dad40;}.av{fill:#2dae41;}.aw{fill:#2dae42;}.ax{fill:#2daf43;}.ay{fill:#2db044;}.az{fill:#2db045;}.ba{fill:#2db146;}.bb{fill:#2eb247;}.bc{fill:#2eb248;}.bd{fill:#2eb349;}.be{fill:#2eb44a;}.bf{fill:#2eb54b;}.bg{fill:#2eb54c;}.bh{fill:#2eb64d;}.bi{fill:url(#cx);}.bj{fill:url(#cy);}.bk{fill:url(#cz);}.bl{fill:url(#da);}.bm{fill:url(#db);}.bn{fill:url(#dc);}.bo{fill:url(#de);}.bp{fill:#ffc444;}.bq{fill:#7556b8;}.br{fill:#2d3038;}.bs{fill:#eea886;}.bt{fill:#1d3b54;}.bu{fill:#122536;}.bv{fill:#172f42;}.bw{fill:#fccca2;}.bx{fill:#e54242;}.by{fill:#b88311;}.bz{fill:#b8b8b8;opacity:0.1;}.ca{fill:#869ac2;opacity:0.3;}.cb{fill:#efaa88;}.cc{fill:#292c47;}.cd{fill:#f8bb66;}.ce{fill:#f89829;}.cf{fill:#f8c681;}.cg{fill:#f8f8f8;}.ch{fill:#1b1d2e;}.ci{fill:#1f2136;}.cj{fill:#282b45;}.ck{fill:#cfbeb6;}.cl{fill:#eddad3;}.cm{fill:#3d4169;}.cn{fill:#323657;}.co{fill:#1d2133;}.cp{fill:#a77860;}.cq{fill:#548ad1;}.cr{fill:url(#dg);}.cs{fill:#fff;}.ct{fill:url(#dh);}.cu{fill:url(#di);}.cv{fill:#3f444f;}</style><linearGradient id="a" y1="0.5" x2="1" y2="0.5" gradientUnits="objectBoundingBox"><stop offset="0" stop-color="#2b9c27"/><stop offset="1" stop-color="#2eb64d"/></linearGradient><linearGradient id="b" x1="0" y1="0.5" x2="1" y2="0.5" xlink:href="#a"/><linearGradient id="c" x1="0" y1="0.5" x2="1" y2="0.5" xlink:href="#a"/><linearGradient id="d" x1="0" y1="0.5" x2="1" y2="0.5" xlink:href="#a"/><linearGradient id="e" x1="0" y1="0.5" x2="1" y2="0.5" xlink:href="#a"/><linearGradient id="f" y1="0.5" x2="1" y2="0.5" gradientUnits="objectBoundingBox"><stop offset="0" stop-color="#ff9340"/><stop offset="1" stop-color="#ffce45"/></linearGradient><linearGradient id="g" y1="0.5" x2="1" y2="0.5" gradientUnits="objectBoundingBox"><stop offset="0" stop-color="#f58631"/><stop offset="1" stop-color="#f2c23f"/></linearGradient><linearGradient id="h" x1="0" y1="0.5" x2="1" y2="0.5" xlink:href="#f"/><linearGradient id="i" x1="0" y1="0.5" x2="1" y2="0.5" xlink:href="#g"/><linearGradient id="j" x1="0" y1="0.5" x2="1" y2="0.5" xlink:href="#f"/><linearGradient id="k" x1="0" y1="0.499" x2="1" y2="0.499" xlink:href="#g"/><linearGradient id="l" x1="0" y1="0.5" x2="1" y2="0.5" xlink:href="#g"/><linearGradient id="m" x1="0" y1="0.5" x2="1" y2="0.5" xlink:href="#f"/><linearGradient id="n" x1="0" y1="0.5" x2="1" y2="0.5" xlink:href="#g"/><linearGradient id="o" x1="13.987" y1="-186.083" x2="14.989" y2="-186.083" xlink:href="#f"/><linearGradient id="p" x1="0" y1="0.5" x2="1" y2="0.5" xlink:href="#a"/><linearGradient id="q" x1="0" y1="0.5" x2="1" y2="0.5" xlink:href="#a"/><linearGradient id="r" x1="0" y1="0.501" x2="1" y2="0.501" xlink:href="#a"/><linearGradient id="s" x1="0" y1="0.5" x2="1" y2="0.5" xlink:href="#a"/><clipPath id="t"><path d="M274.173,168.21H188.05V122.768c.09,0,97.784,0,97.913,0V168.21Zm-85.693-.435h97.044V123.2H188.48Zm6.818-34.893-.26-.349a11.37,11.37,0,0,0,3.741-4.811l.4.166A11.823,11.823,0,0,1,195.3,132.883Z" transform="translate(-188.05 -122.766)"/></clipPath><linearGradient id="cx" y1="0.5" x2="1" y2="0.5" gradientUnits="objectBoundingBox"><stop offset="0" stop-color="#3ddb6f"/><stop offset="1" stop-color="#84f0b1"/></linearGradient><linearGradient id="cy" x1="-0.179" y1="0.5" x2="0.821" y2="0.5" xlink:href="#a"/><linearGradient id="cz" x1="-0.366" y1="0.5" x2="0.634" y2="0.5" xlink:href="#a"/><linearGradient id="da" x1="0" y1="0.5" x2="1" y2="0.5" xlink:href="#a"/><linearGradient id="db" x1="0" y1="0.5" x2="1" y2="0.5" xlink:href="#a"/><linearGradient id="dc" x1="0" y1="0.5" x2="1" y2="0.5" xlink:href="#a"/><linearGradient id="de" x1="0" y1="0.502" x2="1" y2="0.502" xlink:href="#a"/><linearGradient id="dg" x1="0" y1="0.5" x2="1" y2="0.5" xlink:href="#a"/><linearGradient id="dh" x1="0" y1="0.5" x2="1" y2="0.5" xlink:href="#f"/><linearGradient id="di" y1="0.5" x2="1" y2="0.5" gradientUnits="objectBoundingBox"><stop offset="0" stop-color="#c97332"/><stop offset="1" stop-color="#ffce45"/></linearGradient></defs><g transform="translate(0 -0.004)"><path class="a" d="M67.455,146.134H67.24V135.9H81.71V121.24h.215v14.877H67.455Z" transform="translate(-37.118 -66.925)"/><path class="b" d="M83.357,222.554c-6.782-8.108-3.835-25.422-9.376-31.515-.009-4.345-.367-10.971-1.671-10.662l.287-.327c2.921,2.316.914,6.867,2.1,11.558,4.775,5.725,4.081,27.9,8.91,30.592Z" transform="translate(-39.917 -99.39)"/><path class="c" d="M95.214,245.367c-7.185-.824-.17-8.955.784-11.759,1.393-3.929-1.075-6.984,1-8.727,8.279-.2,21.131-13.238,12.158,2.612,2.612,6.334-3.391,5.8-6.961,8.812C99.38,239.2,99.263,245.2,95.214,245.367ZM107.9,220.8c-4.39,5.694-9.3,2.316-11.3,5.42,2.235,9.246-8.193,16.83-2.406,18.6,7.884-.39,1.124-7.333,14.676-12.8,1.595-2.025-.748-3.293.018-6.025,2.114-2.074,5.94-7.736-.99-5.2Z" transform="translate(-50.793 -121.249)"/><path class="d" d="M96.255,252.084l-.435-.022c.511-9.9,3.212-11.244,8.6-17.036,1.8-3.306,3.037-7.665,6.738-7.745l.076.426c-4.637.309-4.623,5.963-7.8,9.278C96.452,241.6,96.331,250.884,96.255,252.084Z" transform="translate(-52.895 -125.462)"/><path class="e" d="M73.684,213.029a3.573,3.573,0,0,1-2.728-2.083c-12.575-23.913-14.586-8.032-8.852-27.295-8.709-14.429-5.376-5.255-3.409-19.411-.309-4.386-7.772-8.435-2.253-11.732,1.389-.52,2.863,1.761,3.669,3.942,1.268,5.73,6.558.8,8.01,4.7-.963,12.619,9.112,6.648,8.44,13.623-5.644,13.4-3.709,9.672.685,15.625C74.136,206.457,75.583,213.342,73.684,213.029Zm-1.949-1.46c4.757,4.045,2.016-7.369,2.979-10.29-.125-3.414,3.311-8.046,1.864-11.262-5.721-5.613-4.78-4.453-.457-15.253.694-7.087-9.452-.417-8.516-13.883-11.661-2.8-5.353-4.843-10.98-7.987-6.057,3.866,7.056,7.468.206,21.131,1.64,5.833,9.775,8.709,3.378,16.678-3.234,4.287,1.469,5.3,4.538,9.273A61.475,61.475,0,0,1,71.735,211.569Z" transform="translate(-30.038 -84.145)"/><path class="f" d="M33.423,116.534h-10.2V104.685H0v-.22H23.442v11.849h9.766V90.784h9.963v9h5.434V74.155H55.32V53.84H68.114V64.188H80.263l4.829,4.834h4.753V43.98H101.34v6.455h9.569V62.889h12.642V47.259h10.366V53.84h5.125l4.565-4.569h5.134V34.12h14.747V56.6h14.855v5.42h5.541V53.84h11.773v9.049h18.564V50.435h13.023v38.49h31.909v15.54h40.259v.22H258.933V89.14h-31.9V50.655H214.44V63.1h-19V54.055H184.1v8.18h-5.971V56.819H163.273V34.34H148.96V49.49H143.7l-4.565,4.565H133.7V47.479H123.77V63.1H110.694V50.655h-9.569V44.2H90.06V69.237H85l-4.834-4.829H67.9V54.055H55.535v20.32H48.825v25.633H42.956V91H33.423Z" transform="translate(0 -18.833)"/><path class="g" d="M428.762,226.1H408.5v-.435h19.827V205.05h.435Z" transform="translate(-225.503 -113.191)"/><rect class="h" width="24.652" height="2.992" transform="translate(96.041 129.574)"/><rect class="i" width="24.652" height="2.992" transform="translate(96.941 126.582)"/><rect class="j" width="24.652" height="2.992" transform="translate(96.44 123.589)"/><rect class="k" width="24.652" height="2.992" transform="translate(96.941 120.597)"/><rect class="l" width="24.652" height="2.992" transform="translate(97.362 117.604)"/><rect class="m" width="24.652" height="2.992" transform="translate(97.994 132.446)"/><rect class="n" width="24.652" height="2.992" transform="translate(124.595 132.369)"/><rect class="o" width="24.652" height="2.992" transform="translate(124.048 129.377)"/><rect class="p" width="24.652" height="2.992" transform="translate(125.056 126.385)"/><path class="q" d="M308.767,278.639l-24.647-.587.072-2.992,24.647.591Z" transform="translate(-156.842 -151.838)"/><path class="r" d="M289.1,161.15l-.412-.139a14.258,14.258,0,0,1,13.3-9.582v.435A13.848,13.848,0,0,0,289.1,161.15Z" transform="translate(-159.365 -83.59)"/><path class="s" d="M318.38,196.625v-.215a13.706,13.706,0,0,0,13.69-13.69h.215A13.915,13.915,0,0,1,318.38,196.625Z" transform="translate(-175.754 -100.864)"/><path class="t" d="M324.289,158.289a11.419,11.419,0,0,0-5.909-1.644v-.435a11.851,11.851,0,0,1,6.133,1.707Z" transform="translate(-175.754 -86.23)"/><path class="u" d="M283.375,161.589l-.435-.04c.847-11.8,15.549-18.6,25.243-11.338l-.255.349A15.573,15.573,0,0,0,283.375,161.589Z" transform="translate(-156.191 -81.265)"/><g transform="translate(84.241 54.998)"><g class="v"><rect class="w" width="0.739" height="5.161" transform="translate(6.988 4.957)"/></g><g class="v"><rect class="x" width="2.576" height="5.161" transform="translate(7.728 4.957)"/></g><g class="v"><rect class="y" width="0.829" height="5.161" transform="translate(10.303 4.957)"/></g><g class="v"><rect class="z" width="2.141" height="44.578" transform="translate(0.43 0.437)"/></g><g class="v"><rect class="aa" width="2.576" height="44.578" transform="translate(2.576 0.437)"/></g><g class="v"><rect class="w" width="2.576" height="44.578" transform="translate(5.152 0.437)"/></g><g class="v"><rect class="x" width="2.576" height="44.578" transform="translate(7.728 0.437)"/></g><g class="v"><rect class="y" width="2.576" height="44.578" transform="translate(10.303 0.437)"/></g><g class="v"><rect class="ab" width="2.576" height="44.578" transform="translate(12.879 0.437)"/></g><g class="v"><rect class="ac" width="2.576" height="44.578" transform="translate(15.46 0.437)"/></g><g class="v"><rect class="ad" width="2.576" height="44.578" transform="translate(18.035 0.437)"/></g><g class="v"><rect class="ae" width="2.576" height="44.578" transform="translate(20.611 0.437)"/></g><g class="v"><rect class="af" width="2.576" height="44.578" transform="translate(23.187 0.437)"/></g><g class="v"><rect class="ag" width="2.576" height="44.578" transform="translate(25.763 0.437)"/></g><g class="v"><rect class="ah" width="2.576" height="44.578" transform="translate(28.343 0.437)"/></g><g class="v"><rect class="ai" width="2.576" height="44.578" transform="translate(30.919 0.437)"/></g><g class="v"><rect class="aj" width="2.576" height="44.578" transform="translate(33.495 0.437)"/></g><g class="v"><rect class="ak" width="2.576" height="44.578" transform="translate(36.071 0.437)"/></g><g class="v"><rect class="al" width="2.576" height="44.578" transform="translate(38.647 0.437)"/></g><g class="v"><rect class="am" width="2.576" height="44.578" transform="translate(41.222 0.437)"/></g><g class="v"><rect class="an" width="2.576" height="44.578" transform="translate(43.803 0.437)"/></g><g class="v"><rect class="ao" width="2.576" height="44.578" transform="translate(46.379 0.437)"/></g><g class="v"><rect class="ap" width="2.576" height="44.578" transform="translate(48.954 0.437)"/></g><g class="v"><rect class="aq" width="2.576" height="44.578" transform="translate(51.53 0.437)"/></g><g class="v"><rect class="ar" width="2.576" height="44.578" transform="translate(54.106 0.437)"/></g><g class="v"><rect class="as" width="2.576" height="44.578" transform="translate(56.682 0.437)"/></g><g class="v"><rect class="at" width="2.576" height="44.578" transform="translate(59.262 0.437)"/></g><g class="v"><rect class="au" width="2.576" height="44.578" transform="translate(61.838 0.437)"/></g><g class="v"><rect class="av" width="2.576" height="44.578" transform="translate(64.414 0.437)"/></g><g class="v"><rect class="aw" width="2.576" height="44.578" transform="translate(66.99 0.437)"/></g><g class="v"><rect class="ax" width="2.576" height="44.578" transform="translate(69.566 0.437)"/></g><g class="v"><rect class="ay" width="2.576" height="44.578" transform="translate(72.146 0.437)"/></g><g class="v"><rect class="az" width="2.576" height="44.578" transform="translate(74.722 0.437)"/></g><g class="v"><rect class="ba" width="2.576" height="44.578" transform="translate(77.298 0.437)"/></g><g class="v"><rect class="bb" width="2.576" height="44.578" transform="translate(79.874 0.437)"/></g><g class="v"><rect class="bc" width="2.576" height="44.578" transform="translate(82.449 0.437)"/></g><g class="v"><rect class="bd" width="2.576" height="44.578" transform="translate(85.025 0.437)"/></g><g class="v"><rect class="be" width="2.576" height="44.578" transform="translate(87.606 0.437)"/></g><g class="v"><rect class="bf" width="2.576" height="44.578" transform="translate(90.181 0.437)"/></g><g class="v"><rect class="bg" width="2.576" height="44.578" transform="translate(92.757 0.437)"/></g><g class="v"><rect class="bh" width="2.141" height="44.578" transform="translate(95.333 0.437)"/></g><g class="v"><path class="z" d="M188.05,122.77v0Z" transform="translate(-188.05 -122.768)"/></g><g class="v"><rect class="z" width="2.576" height="45.442" transform="translate(0 0.002)"/></g><g class="v"><rect class="aa" width="2.576" height="45.442" transform="translate(2.576 0.002)"/></g><g class="v"><rect class="w" width="2.576" height="45.442" transform="translate(5.152 0.002)"/></g><g class="v"><rect class="x" width="2.576" height="45.442" transform="translate(7.728 0.002)"/></g><g class="v"><rect class="y" width="2.576" height="45.442" transform="translate(10.303 0.002)"/></g><g class="v"><rect class="ab" width="2.576" height="45.442" transform="translate(12.879 0.002)"/></g><g class="v"><rect class="ac" width="2.576" height="45.442" transform="translate(15.46 0.002)"/></g><g class="v"><rect class="ad" width="2.576" height="45.442" transform="translate(18.035 0.002)"/></g><g class="v"><rect class="ae" width="2.576" height="45.442" transform="translate(20.611 0.002)"/></g><g class="v"><rect class="af" width="2.576" height="45.442" transform="translate(23.187 0.002)"/></g><g class="v"><rect class="ag" width="2.576" height="45.442" transform="translate(25.763 0.002)"/></g><g class="v"><rect class="ah" width="2.576" height="45.442" transform="translate(28.343 0.002)"/></g><g class="v"><rect class="ai" width="2.576" height="45.442" transform="translate(30.919 0.002)"/></g><g class="v"><rect class="aj" width="2.576" height="45.442" transform="translate(33.495 0.002)"/></g><g class="v"><rect class="ak" width="2.576" height="45.442" transform="translate(36.071 0.002)"/></g><g class="v"><rect class="al" width="2.576" height="45.442" transform="translate(38.647 0.002)"/></g><g class="v"><rect class="am" width="2.576" height="45.442" transform="translate(41.222 0.002)"/></g><g class="v"><rect class="an" width="2.576" height="45.442" transform="translate(43.803 0.002)"/></g><g class="v"><rect class="ao" width="2.576" height="45.442" transform="translate(46.379 0.002)"/></g><g class="v"><rect class="ap" width="2.576" height="45.442" transform="translate(48.954 0.002)"/></g><g class="v"><rect class="aq" width="2.576" height="45.442" transform="translate(51.53 0.002)"/></g><g class="v"><rect class="ar" width="2.576" height="45.442" transform="translate(54.106 0.002)"/></g><g class="v"><rect class="as" width="2.576" height="45.442" transform="translate(56.682 0.002)"/></g><g class="v"><rect class="at" width="2.576" height="45.442" transform="translate(59.262 0.002)"/></g><g class="v"><rect class="au" width="2.576" height="45.442" transform="translate(61.838 0.002)"/></g><g class="v"><rect class="av" width="2.576" height="45.442" transform="translate(64.414 0.002)"/></g><g class="v"><rect class="aw" width="2.576" height="45.442" transform="translate(66.99 0.002)"/></g><g class="v"><rect class="ax" width="2.576" height="45.442" transform="translate(69.566 0.002)"/></g><g class="v"><rect class="ay" width="2.576" height="45.442" transform="translate(72.146 0.002)"/></g><g class="v"><rect class="az" width="2.576" height="45.442" transform="translate(74.722 0.002)"/></g><g class="v"><rect class="ba" width="2.576" height="45.442" transform="translate(77.298 0.002)"/></g><g class="v"><rect class="bb" width="2.576" height="45.442" transform="translate(79.874 0.002)"/></g><g class="v"><rect class="bc" width="2.576" height="45.442" transform="translate(82.449 0.002)"/></g><g class="v"><rect class="bd" width="2.576" height="45.442" transform="translate(85.025 0.002)"/></g><g class="v"><rect class="be" width="2.576" height="45.442" transform="translate(87.606 0.002)"/></g><g class="v"><rect class="bf" width="2.576" height="45.442" transform="translate(90.181 0.002)"/></g><g class="v"><rect class="bg" width="2.576" height="45.442" transform="translate(92.757 0.002)"/></g><g class="v"><rect class="bh" width="2.576" height="45.442" transform="translate(95.333 0.002)"/></g><g class="v"><path class="bh" d="M406.61,168.212v0Z" transform="translate(-308.701 -122.768)"/></g></g><path class="c" d="M304.6,176.7H188.05V162.674h.435v13.587h115.9V122.98h-14.12v-.22h14.555V176.7Zm-13.067-4.5H201.691a14.084,14.084,0,0,0-8.986-8.735l.125-.417a14.074,14.074,0,0,1,9.17,8.718h89.209a14.062,14.062,0,0,1,8.673-9.013V136.159a14.074,14.074,0,0,1-9.067-8.816l.412-.143a14.084,14.084,0,0,0,9.089,8.637v27.219A14.07,14.07,0,0,0,291.532,172.194Zm-98.545-17.74h-.435V136.19a14.08,14.08,0,0,0,8.785-9.139h66.909v.435H201.659a14.072,14.072,0,0,1-8.673,9.013Z" transform="translate(-103.809 -67.764)"/><path class="bi" d="M304.864,122.77v53.716H188.53V157.3c44.985-1.124,74.883-20.961,88.636-34.534Z" transform="translate(-104.074 -67.77)"/><path class="bj" d="M314.726,168.356c-1.272,21.548-30.511,19.975-31.466.421a133.42,133.42,0,0,0,26.3-12.077A15.7,15.7,0,0,1,314.726,168.356Z" transform="translate(-156.367 -86.5)"/><path class="bk" d="M393.478,176.548c-.34,6.8-9.945,6.545-10.268,0C383.546,169.744,393.155,170,393.478,176.548Z" transform="translate(-211.542 -94.692)"/><path class="bl" d="M236.369,186.819a4.1,4.1,0,0,1-4.1-4.1h.435a3.669,3.669,0,0,0,3.664,3.664Z" transform="translate(-128.219 -100.864)"/><path class="bm" d="M245.519,177.669h-.435A3.669,3.669,0,0,0,241.42,174v-.435A4.1,4.1,0,0,1,245.519,177.669Z" transform="translate(-133.27 -95.813)"/><path class="bn" d="M229.915,176.186h-.435a5.4,5.4,0,0,1,9.4-3.5l-.327.282C236.186,169.914,229.9,171.442,229.915,176.186Z" transform="translate(-126.679 -94.33)"/><path class="c" d="M277.166,122.77a61.773,61.773,0,0,1-4.856,4.5h18.976a13.862,13.862,0,0,0,9.08,8.731v26.9a13.862,13.862,0,0,0-8.731,9.08H202.113a13.853,13.853,0,0,0-9.08-8.731v-6.115c-1.483.076-2.984.134-4.5.166v19.182H304.864V122.77Z" transform="translate(-104.074 -67.77)"/><rect class="bo" width="34.413" height="0.435" transform="translate(108.15 60.658)"/><path class="bp" d="M479.843,184.981s-2.607-5.9.417-5.416c7.495,8.543,3.337,10.348.73,16.409l-1.985-1.03s1.68-3.346,2.863-6.294Z" transform="translate(-264.31 -99.106)"/><rect class="bq" width="6.885" height="40.497" transform="translate(190.863 96.772) rotate(-80.34)"/><rect class="br" width="5.228" height="2.164" transform="translate(188.868 95.59) rotate(-80.34)"/><path class="bs" d="M438.669,296.21h-.493c.573-4.345-3.454,1.868-6.5-.1-1.21-.591,5.761-3.418,5.353-5.582l1.931-.085C439.162,291.2,439.363,295.094,438.669,296.21Z" transform="translate(-238.219 -160.328)"/><path class="bs" d="M468.2,295.556h-.408v-1.729c-10.836,5.237-1.81-1.474-1.12-3.906l1.747.152C468.556,290.547,468.793,294.87,468.2,295.556Z" transform="translate(-255.308 -160.041)"/><path class="bt" d="M450.786,213.715c-4.153,11.271-4.247,20.49-8.126,34.077a8.654,8.654,0,0,0,2.912-.085c1.4-.694,5.12-18.143,6.755-20.907C463.361,213.76,455.132,210.664,450.786,213.715Z" transform="translate(-244.36 -117.376)"/><path class="bt" d="M470.807,226.444c.13,1.411.753,19.4-.318,19.7a6.166,6.166,0,0,1-3.275,0c-.139-6.316.788-15.643-1.684-22.546-.753-1.94-1.662-11.038-1.68-11.275C474.664,205.479,471.627,221.261,470.807,226.444Z" transform="translate(-256.058 -116.271)"/><path class="bu" d="M470.951,229.12c-.036.081-2.352,5.219-2.948,6.11-.134-.475,0,0-.4-1.42C467.6,233.81,470.87,229.232,470.951,229.12Z" transform="translate(-258.128 -126.478)"/><path class="bv" d="M467.933,298.023h-.408v-1.729c-.381,1.371-7.557,3.046-4.941.363C467.113,295.42,469.573,291.576,467.933,298.023Z" transform="translate(-255.043 -162.508)"/><path class="bv" d="M438.654,299.107h-.493c.1-4.3-1.819,1.12-5.268.094-5.031-.076,5.179-3.575,6.281-3.512C439.438,296.339,438.887,298.471,438.654,299.107Z" transform="translate(-238.204 -163.225)"/><path class="bs" d="M469.96,169.964a5.741,5.741,0,0,1,.166,3.481C474.35,174.4,474.422,165.981,469.96,169.964Z" transform="translate(-259.431 -93.228)"/><path class="bp" d="M463.947,177.5c-8.095.632-2.226,11.034-3.92,16.109a20.4,20.4,0,0,0,8.386,0C465.8,187.27,477.646,176.5,463.947,177.5Z" transform="translate(-253.677 -97.947)"/><path class="bp" d="M468.658,200.666a22.491,22.491,0,0,1-11.818,0,18.689,18.689,0,0,0,1.084-2.912c-.945-18.268,11.791-16.149,11.37-13.538C468.8,190.977,466.655,195.913,468.658,200.666Z" transform="translate(-252.188 -100.748)"/><path class="bs" d="M469.066,153.337c-3.257-1.819-6.729,4.793-4.081,8.032C468.139,163.2,475.338,155.7,469.066,153.337Z" transform="translate(-256.167 -84.472)"/><path class="bw" d="M465.89,154.872a6.855,6.855,0,0,0,2.088,2.6,5.849,5.849,0,0,0,2.347,2.88C476.709,156.13,469.089,149.008,465.89,154.872Z" transform="translate(-257.184 -84.264)"/><path class="bs" d="M470.167,161.636c-.188,1.174-.116.753,0,0C472.147,160.337,470.373,164.915,470.167,161.636Z" transform="translate(-259.481 -89.093)"/><path class="bw" d="M477.415,156.947c8.628-2.029-1.832,10.456.954,13.112C475.534,167.841,474.7,161.7,477.415,156.947Z" transform="translate(-262.63 -86.514)"/><path class="bx" d="M478.574,157.009a2.856,2.856,0,0,0-.977,1.761C477.611,158.872,477.441,156.955,478.574,157.009Z" transform="translate(-263.646 -86.67)"/><path class="by" d="M459.25,205.239c.3-1.156,2.11-7.777,2.222-9.179A11.544,11.544,0,0,1,459.25,205.239Z" transform="translate(-253.518 -108.228)"/><path class="bs" d="M443.465,217.26c-.887.829-.995,1.151-2.661.555-4.453-.52,3.261,3.593,3.982.193Z" transform="translate(-242.576 -119.931)"/><path class="bp" d="M453.473,179.539c-4.139,3.261-1.6,14.873-7.853,17.6l1.747,1.644C454.8,193.476,455.946,179.436,453.473,179.539Z" transform="translate(-245.994 -99.108)"/><path class="bz" d="M321.87,169.717c1.649,29.024,41.541,26.99,42.271,0C362.492,140.693,322.6,142.727,321.87,169.717Z" transform="translate(-177.681 -82.086)"/><path class="ca" d="M357.307,154.352s-27.179-3.369-32.594,25.315C313.988,157.546,340.611,139.506,357.307,154.352Z" transform="translate(-177.885 -82.212)"/><g transform="translate(90.822 100.148)"><path class="cb" d="M203.045,224.484c.2.627,4.144-1.841,3.3-.551-2.177,1.339-.188.618.175,1.814-.779,3.387-2.119.793-3.776.336Z" transform="translate(-202.74 -223.554)"/></g><g transform="translate(93.322 101.876)"><path class="cb" d="M209.377,227.41c4.784,1.971,2.146,1.649-.031.6,5.747,3.485,1.864,2.029-.264.641,5.04,3.055,1.931,2.074-.354.587,2.907,2.056,1.873,2.047-.408.412Z" transform="translate(-208.32 -227.41)"/></g><path class="cc" d="M172.62,196.522c7.929,12.74,15.209,10.9,12.418,15.106C181.467,211.475,161.514,194.085,172.62,196.522Z" transform="translate(-93.454 -108.354)"/><g transform="translate(87.439 87.066)"><path class="cd" d="M195.477,209.321c-1.971-17.48,21.834-19.98,24.943-4.377C222.392,222.424,198.591,224.924,195.477,209.321Z" transform="translate(-195.284 -194.484)"/><path class="cd" d="M224.618,219.358l-4.368-24.9C236.888,193.461,239.105,215.658,224.618,219.358Z" transform="translate(-209.023 -194.393)"/><path class="cd" d="M195.382,210.523a12.67,12.67,0,0,1,7.306-13.753l4.247,24.2A12.668,12.668,0,0,1,195.382,210.523Z" transform="translate(-195.189 -195.686)"/><path class="ce" d="M201.98,210.6c1.183-13.327,19.267-11.513,19.24.5C220.042,224.429,201.958,222.614,201.98,210.6Z" transform="translate(-198.938 -198.204)"/><g transform="translate(8.01 6.841)"><path class="cf" d="M221.286,214.162c-.354-.3-.018-.667-2.056-1.662l-.838,2.786c2.37.444,5.152,6.563-1.568,5.6l-.426,1.416-.7-.211.435-1.438a6.591,6.591,0,0,1-3.064-2.3l1.075-1.084c.4.264-.282.56,2.491,2.07l.838-2.786c-2.491-.739-4.583-5.967,1.572-5.573l.408-1.362.7.211-.408,1.362a5.94,5.94,0,0,1,2.6,1.944Zm-4.551-.986c-.076.184-.157,1,1.2,1.828l.8-2.652C218,212.518,217.778,211.564,216.734,213.177Zm2.549,5.64c.054-.188.224-.923-1.357-1.98l-.8,2.665C217.653,219.561,218.732,220.017,219.283,218.817Z" transform="translate(-213.07 -209.62)"/></g><path class="cg" d="M229.169,218.67c12.937-6.03,8.274-23.613-4.269-24.32Z" transform="translate(-211.59 -194.35)"/><path class="cg" d="M216.177,219.712l-4.247-24.2a13.85,13.85,0,0,1,3.727-1.017l4.368,24.9A13.439,13.439,0,0,1,216.177,219.712Z" transform="translate(-204.431 -194.433)"/></g><g transform="translate(63.496 132.739)"><path class="ch" d="M144.944,296.379c8.529,2.518,3.423,4.372-3.131,2.41C141.315,295.3,143.542,296.572,144.944,296.379Z" transform="translate(-141.741 -296.306)"/></g><g transform="translate(63.978 130.923)"><path class="ci" d="M145.748,293.213c-.381,2.312-4.825,1.59-1.993-.963Z" transform="translate(-142.816 -292.25)"/></g><g transform="translate(63.854 104.279)"><path class="cj" d="M156.656,239.209c-12.637-13.565-8.583-2.639-5.676,4.981-.748,2.751-8.238,14.214-8.44,15.791,4.1,3.472,5.152-2.849,9.82-7.781C155.876,248.258,157.82,245.92,156.656,239.209Z" transform="translate(-142.54 -232.773)"/></g><g transform="translate(79.928 132.629)"><path class="ch" d="M181.431,296.131c.891.582,7.611,2.079,4.4,3.216C175.4,300.678,178.031,295.388,181.431,296.131Z" transform="translate(-178.422 -296.059)"/></g><g transform="translate(80.125 131.352)"><path class="ci" d="M182.53,293.89c-.031.838-.273,1.08-2.24,1.089C176.594,295.167,181.07,291.811,182.53,293.89Z" transform="translate(-178.862 -293.208)"/></g><g transform="translate(69.833 102.374)"><path class="cj" d="M166.469,230.214c18.9,12.494,8.61,12.624,3.454,28.339,0,0-2.961.417-3.732-.56-.291-1.039,6.455-14.537,4.444-16.857-5.076-2.751-16.508-6.827-14.519-12.207C156.112,228.933,158.46,227.414,166.469,230.214Z" transform="translate(-155.887 -228.521)"/></g><g transform="translate(69.507 84.289)"><path class="ck" d="M166.861,189.915c1.949,4.5-3.073,13.511-.793,18.013l-10.895,1.649c-.278-8.485,3.678-21.35,9.542-21.427Z" transform="translate(-155.159 -188.15)"/></g><g transform="translate(79.91 76.421)"><path class="bs" d="M184.948,173.048c1.469,4.484-1.528,9-5.819,4.605C176.624,172,180.88,167.659,184.948,173.048Z" transform="translate(-178.381 -170.588)"/></g><g transform="translate(79.426 78.832)"><path class="bs" d="M180.714,182.129c-1.756,4.52-2.271,2.052-3.414-.641a38.832,38.832,0,0,0,2.325-4.973C180.655,173.792,180.714,182.129,180.714,182.129Z" transform="translate(-177.3 -175.969)"/></g><g transform="translate(79.302 75.614)"><path class="cj" d="M184.337,172.425c2.088-6.03-10.474-4.413-6.549,3.7-.121.672,1.124-2.536,2.988-1.671C180.256,172.676,182.191,172.3,184.337,172.425Z" transform="translate(-177.023 -168.785)"/></g><g transform="translate(80.864 79.62)"><path class="bs" d="M181.836,178.424c.143-.376-1.514-1.505-1.308.3C180.828,180.2,181.944,181.085,181.836,178.424Z" transform="translate(-180.51 -177.729)"/></g><g transform="translate(79.067 83.988)"><path class="cl" d="M177.06,187.48A14.286,14.286,0,0,0,179.152,191l-.452,1.563-2.2-4.78Z" transform="translate(-176.5 -187.48)"/></g><path class="cm" d="M166.079,231.047l-.188-1.017-10.684,1.563-.027,1.1Z" transform="translate(-85.664 -126.98)"/><g transform="translate(68.073 84.289)"><path class="cn" d="M164.8,196.079c-1.017,2.755-6.352,15.872-7.642,15.764,0,0-4.274-.8-5.2-1.617a78.974,78.974,0,0,1,3.418-13.3c1.492-5.712,4.269-8.771,7.575-8.771C163,188.235,166.249,193.118,164.8,196.079Z" transform="translate(-151.957 -188.15)"/></g><path class="cn" d="M152.56,211.65c-2.8,11.087-8.525,11.034-.3,12.539Z" transform="translate(-81.699 -116.834)"/><path class="co" d="M163.213,201.09c-1.447,1.268-4.713,4.314-4.713,4.314.157-.448,0,0,.484-1.339C160.117,203.146,163.163,201.121,163.213,201.09Z" transform="translate(-87.496 -111.005)"/><path class="cp" d="M182.364,188.02c-.027.054.009-.027-.421.753a5.754,5.754,0,0,1-1.653-2.132A15.615,15.615,0,0,0,182.364,188.02Z" transform="translate(-99.525 -103.028)"/><g transform="translate(66.497 88.58)"><path class="bq" d="M163.685,198.191c-.484,5.264-12.512,3.216-15.245,7.015,2.038-8.65,12.615.995,14.9-7.477C163.349,197.734,163.761,198.008,163.685,198.191Z" transform="translate(-148.44 -197.73)"/></g><path class="cq" d="M181.853,195.532c-.228-.139.672,1.877-.4,1.384Z" transform="translate(-100.165 -107.932)"/><g transform="translate(93.244 99.091)"><path class="bs" d="M209.179,221.259c2.889-.708,1.935,4.587-.874,1.407C207.808,222.038,208.592,221.326,209.179,221.259Z" transform="translate(-208.147 -221.193)"/></g><g transform="translate(94.619 99.146)"><path class="bs" d="M212.517,221.318c.3-.09,6.778,3.19,1.093,1.174.04.067,3.423,1.828,1.9,1.774.363.623-.757.4-1.949-.125C214.192,225.394,208.839,223.522,212.517,221.318Z" transform="translate(-211.215 -221.316)"/></g><path class="cn" d="M173.669,191.626c9.954,14.384,17.359,9.976,14.335,15.858C174.713,202.369,164.244,187.819,173.669,191.626Z" transform="translate(-93.872 -105.434)"/><path class="e" d="M180.215,127.2h-.435V114.25h14.156v.43H180.215Z" transform="translate(-99.243 -63.067)"/><path class="a" d="M171.509,91.257,166.4,86.141H156.48V79.52h.219v6.406h9.788l5.179,5.179Z" transform="translate(-86.381 -43.895)"/><path class="a" d="M532.9,117.439H514.66V90.61h.22v26.614H532.9Z" transform="translate(-284.106 -50.017)"/><path class="a" d="M156.672,36.787h-34.1c-.157-5.022,6.8-8.01,10.245-3.378a3.862,3.862,0,0,1,3.445-.228,7.779,7.779,0,0,1,12.951-1.12C151.87,30.488,156.874,32.759,156.672,36.787Zm-33.88-.22h33.661a5.009,5.009,0,0,0-7.3-4.229c-2.733-4.126-10.38-4.193-12.785,1.124a3.646,3.646,0,0,0-3.606.237C130.322,29.6,122.9,31.156,122.792,36.567Z" transform="translate(-67.664 -16.061)"/><path class="a" d="M367.483,7.269H340.43A5.562,5.562,0,0,1,349.148,2.7c2.791-3.911,10.16-3.7,12.382,1.474C363.241,2.632,367.6,3.886,367.483,7.269Zm-26.838-.22h26.619c-.385-2.5-2.845-4.654-5.819-2.527A7.158,7.158,0,0,0,349.188,3C346.491.589,340.676,2.529,340.645,7.049Z" transform="translate(-187.927)"/><path class="cr" d="M99.134,174.864c-2.742-.941-2.168,4.341-3.328,8.247s-12.879,1.7-7.96,11.486-6.222,3.27-2.894,11.809.291,17.668,3.906,15.343,2.034-13.072,5.792-14.349,4.377-2.768.65-6.24,9.761-6.921,6.433-13.932S102.3,175.948,99.134,174.864Z" transform="translate(-46.546 -96.466)"/><path class="cs" d="M95.14,236.234c-4.368-19.039.838-13.583,1.5-20.369-.4-10.6.869-11.921,5.573-13.865l.143.408c-8.207,2.509-3.982,10.993-5.721,15.666-4.318,5.483-2.585,10.353-1.075,18.062Z" transform="translate(-51.565 -111.507)"/><path class="ct" d="M90.766,268.19l-3.915,14.841h-8.74L74.2,268.19Z" transform="translate(-40.96 -148.046)"/><path class="cu" d="M90.772,268.19s-8.61,1.617-8.61,14.841H78.121L74.21,268.19Z" transform="translate(-40.966 -148.046)"/><path class="cs" d="M313.747,174.513a.429.429,0,0,0-.336-.125H310.97a4.989,4.989,0,0,0-.918-2.07h3.342a.44.44,0,0,0,.457-.421v-1.5a.44.44,0,0,0-.421-.457H301.45a.44.44,0,0,0-.457.421V172.3a.473.473,0,0,0,.461.461h2.079q3.031,0,3.844,1.622H301.45a.44.44,0,0,0-.457.421v1.5a.44.44,0,0,0,.421.457h6.164a2.817,2.817,0,0,1-1.478,1.792,6.452,6.452,0,0,1-3.051.614h-1.608a.473.473,0,0,0-.461.461v1.823a.467.467,0,0,0,.125.318q2.755,2.93,7.145,8.193a.417.417,0,0,0,.358.166h2.8a.41.41,0,0,0,.412-.26.394.394,0,0,0-.058-.488q-4.193-5.134-6.59-7.692a7.268,7.268,0,0,0,3.96-1.581,5.343,5.343,0,0,0,1.846-3.355h2.41a.44.44,0,0,0,.457-.421v-1.5A.38.38,0,0,0,313.747,174.513Z" transform="translate(-166.149 -93.809)"/><path class="cv" d="M338.334,139.68c-34.31,1.913-32.142,49.192,0,50.115C372.644,187.882,370.476,140.6,338.334,139.68Zm0,45.926c-28.7-1.653-26.605-41.03,0-41.738C367.036,145.522,364.944,184.894,338.334,185.606Z" transform="translate(-173.01 -77.105)"/></g></svg>