<svg width="75.75" height="64.491" xmlns="http://www.w3.org/2000/svg">
 <defs>
  <style>.a{opacity:0.86;fill:url(#a);}.b,.i{fill:#fff;}.b{stroke:#8fcf4b;}.c{fill:#8fcf4b;}.d,.e,.h{fill:#232934;}.d{opacity:0.26;}.f{fill:#313a49;}.g{fill:#bfe58f;}.h{stroke:#232934;stroke-miterlimit:10;}.i{font-size:15px;font-family:Poppins-Medium, Poppins;font-weight:500;}.j{stroke:none;}.k{fill:none;}</style>
 </defs>
 <g>
  <title>background</title>
  <rect x="-1" y="-1" width="77.75" height="66.491" id="canvas_background" fill="none"/>
 </g>
 <g>
  <title>Layer 1</title>
  <path class="a" d="m36.575,61.82232l-1.324,-2.307l-26,0c-1.317,0 -2.383,-1.773 -2.383,-3.961l-2.868,-11.054c0,-2.188 1.067,-3.961 2.384,-3.961l61.982,0c1.317,0 2.384,1.773 2.384,3.961l-2.861,11.054c0,2.188 -1.067,3.961 -2.384,3.961l-25.874,0l-1.324,2.307a1,1 0 0 1 -1.734,0l0.002,0z" id="svg_2"/>
  <g class="b" id="svg_4">
   <path class="j" d="m16.125,2.58332l42,0a9,9 0 0 1 9,9l0,24a0,0 0 0 1 0,0l-60,0a0,0 0 0 1 0,0l0,-24a9,9 0 0 1 9,-9z" id="svg_5"/>
   <path class="k" d="m16.125,3.08332l42,0a8.5,8.5 0 0 1 8.5,8.5l0,23a0.5,0.5 0 0 1 -0.5,0.5l-58,0a0.5,0.5 0 0 1 -0.5,-0.5l0,-23a8.5,8.5 0 0 1 8.5,-8.5z" id="svg_6"/>
  </g>
  <path stroke="null" class="c" d="m7.125,31.58332l59.000001,0a0,0 0 0 1 0,0l0,4.318182a2.95,0.681818 0 0 1 -2.95,0.681818l-53.100001,0a2.95,0.681818 0 0 1 -2.95,-0.681818l0,-4.318182a0,0 0 0 1 0,0z" id="svg_7"/>
  <g id="svg_8">
   <ellipse class="d" cx="37.224952" cy="26.659322" rx="16.327" ry="0.739" id="svg_9"/>
   <g id="svg_10">
    <path class="e" d="m27.07095,19.07432a3.793,3.793 0 1 0 3.793,3.793a3.793,3.793 0 0 0 -3.793,-3.793zm0,6.388a2.595,2.595 0 1 1 2.595,-2.595a2.594,2.594 0 0 1 -2.595,2.595z" id="svg_11"/>
    <path class="c" d="m27.07095,20.05732a2.811,2.811 0 1 0 2.811,2.811a2.811,2.811 0 0 0 -2.811,-2.811zm0,5.377a2.568,2.568 0 1 1 2.568,-2.568a2.568,2.568 0 0 1 -2.568,2.568z" id="svg_12"/>
    <path class="e" d="m48.29495,19.07432a3.793,3.793 0 1 0 3.793,3.793a3.793,3.793 0 0 0 -3.793,-3.793zm0,6.388a2.595,2.595 0 1 1 2.595,-2.595a2.594,2.594 0 0 1 -2.595,2.595z" id="svg_13"/>
    <path class="c" d="m48.29495,20.05732a2.811,2.811 0 1 0 2.811,2.811a2.811,2.811 0 0 0 -2.811,-2.811zm0,5.377a2.568,2.568 0 1 1 2.568,-2.568a2.568,2.568 0 0 1 -2.568,2.568z" id="svg_14"/>
    <g id="svg_15">
     <rect class="e" width="0.746" height="3.595" transform="matrix(0.922,-0.386,0.386,0.922,0,0.288) " y="24.634464" x="34.118274" id="svg_16"/>
    </g>
    <path class="c" d="m28.23095,18.95332a0.781,0.781 0 0 0 0.334,-0.4c-3.466,-0.548 -4.738,1.276 -5.085,1.951a0.111,0.111 0 0 0 0.136,0.154c0.686,-0.243 1.173,-0.417 1.445,-0.515a0.334,0.334 0 0 1 0.4,0.139l1.608,2.587l-0.151,-3.315a0.237,0.237 0 0 1 0.169,-0.238c0.24,-0.071 0.681,-0.203 1.144,-0.363z" id="svg_17"/>
    <path class="c" d="m44.64195,20.41732a4.273,4.273 0 0 1 5.127,-1.7a0.085,0.085 0 0 1 0.017,0.156l-1.188,0.629a0.241,0.241 0 0 0 -0.127,0.2l-0.174,3.169l-0.137,-1.088a1.531,1.531 0 0 0 -0.188,-0.565l-0.873,-1.549a0.184,0.184 0 0 0 -0.235,-0.079c-0.377,0.168 -1.374,0.612 -2.117,0.949a0.083,0.083 0 0 1 -0.105,-0.122z" id="svg_18"/>
    <g id="svg_19">
     <rect class="f" width="0.622" height="7.407" transform="rotate(-28.222999572753906 44.51695251464844,16.489322662353526) " y="16.489323" x="44.516952" id="svg_20"/>
    </g>
    <path class="e" d="m35.88095,15.34532l-0.53,1.274a3.3,3.3 0 0 0 0.119,2.784l1.984,3.816l-3.067,0l-4.019,-8.466l5.513,0.592z" id="svg_21"/>
    <g id="svg_22">
     <path class="f" d="m27.07195,23.55032a0.684,0.684 0 0 1 -0.629,-0.954l3.3,-7.69a0.684,0.684 0 0 1 1.257,0.54l-2.843,6.636l6.131,-0.56a0.683,0.683 0 1 1 0.124,1.361l-7.274,0.664a0.374,0.374 0 0 1 -0.066,0.003z" id="svg_23"/>
    </g>
    <path class="g" d="m33.14495,21.64532l8.952,0l-1.74,1.58l-6.446,0l-0.766,-1.58z" id="svg_24"/>
    <path class="c" d="m45.90895,16.75332l-1.452,0a0.414,0.414 0 0 1 -0.412,-0.412l0,0a0.414,0.414 0 0 1 0.412,-0.412l1.452,0a0.414,0.414 0 0 1 0.412,0.412l0,0a0.413,0.413 0 0 1 -0.412,0.412z" id="svg_25"/>
    <g id="svg_26">
     <path class="c" d="m39.31995,24.17232l-3.049,0a4.635,4.635 0 0 1 -4.313,-2.9l-2.222,-5.47l1.844,-0.749l2.226,5.469a2.657,2.657 0 0 0 2.469,1.663l3.049,0a2.64,2.64 0 0 0 2.514,-1.872l0.707,-2.368a4.385,4.385 0 0 0 -0.159,-2.953l-1.28,-3.027a1,1 0 0 1 0.531,-1.3l0,0a1,1 0 0 1 1.3,0.531l1.272,3.025a6.4,6.4 0 0 1 0.231,4.294l-0.707,2.368a4.611,4.611 0 0 1 -4.413,3.289z" id="svg_27"/>
    </g>
    <path class="c" d="m36.83495,14.75332a1.276,1.276 0 0 1 -1.27,1.274l-8.72,0l0,-1.274a1.278,1.278 0 0 1 1.274,-1.274l7.44,0a1.278,1.278 0 0 1 1.276,1.274z" id="svg_28"/>
    <path class="f" d="m27.07095,23.86232l0,0a1,1 0 0 1 -1,-1l0,0a1,1 0 0 1 1,-1l0,0a1,1 0 0 1 1,1l0,0a1,1 0 0 1 -1,1z" id="svg_29"/>
    <path class="f" d="m48.29595,23.86232l0,0a1,1 0 0 1 -1,-1l0,0a1,1 0 0 1 1,-1l0,0a1,1 0 0 1 1,1l0,0a1,1 0 0 1 -1,1z" id="svg_30"/>
    <g id="svg_31">
     <path class="h" d="m41.48095,9.56232a3.805,3.805 0 0 1 0.409,-2.767l0.107,0.062a3.754,3.754 0 0 0 -0.4,2.665l-0.116,0.04z" id="svg_32"/>
    </g>
    <path class="c" d="m46.98495,17.40032a0.347,0.347 0 0 1 -0.451,0.332a1.463,1.463 0 0 1 0,-2.782a0.347,0.347 0 0 1 0.451,0.332l0,2.118z" id="svg_33"/>
    <ellipse class="c" cx="41.942951" cy="6.329322" rx="0.404" ry="0.996" id="svg_34"/>
    <path class="e" d="m41.79195,10.14732l-0.357,0a0.764,0.764 0 0 1 -0.761,-0.761l0,0a0.763,0.763 0 0 1 0.761,-0.761l0.357,0a0.764,0.764 0 0 1 0.761,0.761l0,0a0.763,0.763 0 0 1 -0.761,0.761z" id="svg_35"/>
    <path class="e" d="m40.73495,9.57232l-0.062,0a0.576,0.576 0 0 1 -0.575,-0.58l0,0a0.576,0.576 0 0 1 0.575,-0.575l0.062,0a0.576,0.576 0 0 1 0.575,0.575l0,0a0.576,0.576 0 0 1 -0.575,0.58z" id="svg_36"/>
    <path class="c" d="m40.45595,8.77932a0.357,0.357 0 1 1 -0.357,-0.357a0.357,0.357 0 0 1 0.357,0.357z" id="svg_37"/>
    <path class="g" d="m36.83495,14.75332l-9.99,0a1.278,1.278 0 0 1 1.274,-1.274l7.44,0a1.278,1.278 0 0 1 1.276,1.274z" id="svg_38"/>
   </g>
  </g>
  <path class="c" d="m39.50895,31.83332l12.715,19.3l-25.43,0l12.715,-19.3z" transform="rotate(180 39.508949279785156,41.48332214355469) " id="svg_39"/>
  <text class="i" y="47.333322" x="37.375002" id="svg_40">
   <tspan x="267.458002" y="0" id="svg_41">15 Min</tspan>
  </text>
 </g>
</svg>